999
"DXF R12 Output" (www.mydxf.blogspot.com)
 0 
SECTION
 2 
HEADER
 9 
$ACADVER
 1 
AC1009
 9 
$EXTMIN
 10 
 0 
 20 
 0 
 9 
$EXTMAX
 10 
 8.5 
 20 
 11 
 0 
ENDSEC
 0 
SECTION
 2 
ENTITIES
0
POLYLINE
8
Layer 1
62
7
70
0
10
0.000000
20
0.000000
66
1
0
VERTEX
8
Layer 1
10
28.927969
20
210.865656
70
0
0
VERTEX
8
Layer 1
10
26.674920
20
209.353663
70
0
0
VERTEX
8
Layer 1
10
24.516515
20
207.719066
70
0
0
VERTEX
8
Layer 1
10
20.494345
20
204.108969
70
0
0
VERTEX
8
Layer 1
10
16.882879
20
200.089189
70
0
0
VERTEX
8
Layer 1
10
13.703533
20
195.713549
70
0
0
VERTEX
8
Layer 1
10
10.977727
20
191.035874
70
0
0
VERTEX
8
Layer 1
10
8.726876
20
186.109988
70
0
0
VERTEX
8
Layer 1
10
6.972399
20
180.989714
70
0
0
VERTEX
8
Layer 1
10
5.735715
20
175.728875
70
0
0
VERTEX
8
Layer 1
10
4.961713
20
170.073002
70
0
0
VERTEX
8
Layer 1
10
4.758386
20
164.367882
70
0
0
VERTEX
8
Layer 1
10
5.114881
20
158.669373
70
0
0
VERTEX
8
Layer 1
10
6.020344
20
153.033330
70
0
0
VERTEX
8
Layer 1
10
5.504667
20
152.345830
70
0
0
VERTEX
8
Layer 1
10
4.896776
20
151.734954
70
0
0
VERTEX
8
Layer 1
10
3.731509
20
150.461667
70
0
0
VERTEX
8
Layer 1
10
0.645906
20
146.612339
70
0
0
VERTEX
8
Layer 1
10
9.265114
20
118.190889
70
0
0
VERTEX
8
Layer 1
10
11.813172
20
120.613573
70
0
0
VERTEX
8
Layer 1
10
14.659989
20
122.699820
70
0
0
VERTEX
8
Layer 1
10
17.763938
20
124.344218
70
0
0
VERTEX
8
Layer 1
10
19.399328
20
124.967782
70
0
0
VERTEX
8
Layer 1
10
21.083391
20
125.441353
70
0
0
VERTEX
8
Layer 1
10
21.156097
20
124.621786
70
0
0
VERTEX
8
Layer 1
10
21.118333
20
123.752982
70
0
0
VERTEX
8
Layer 1
10
21.233335
20
122.938307
70
0
0
VERTEX
8
Layer 1
10
21.430384
20
122.583571
70
0
0
VERTEX
8
Layer 1
10
21.764336
20
122.281130
70
0
0
VERTEX
8
Layer 1
10
22.385583
20
122.093919
70
0
0
VERTEX
8
Layer 1
10
23.042040
20
122.094799
70
0
0
VERTEX
8
Layer 1
10
24.368463
20
122.149302
70
0
0
VERTEX
8
Layer 1
10
36.806821
20
122.166882
70
0
0
VERTEX
8
Layer 1
10
36.951198
20
122.889692
70
0
0
VERTEX
8
Layer 1
10
36.929208
20
123.626928
70
0
0
VERTEX
8
Layer 1
10
36.894012
20
124.364785
70
0
0
VERTEX
8
Layer 1
10
36.998772
20
125.089461
70
0
0
VERTEX
8
Layer 1
10
37.805396
20
124.932059
70
0
0
VERTEX
8
Layer 1
10
38.574158
20
124.655774
70
0
0
VERTEX
8
Layer 1
10
40.119043
20
124.058994
70
0
0
VERTEX
8
Layer 1
10
42.534892
20
122.864419
70
0
0
VERTEX
8
Layer 1
10
44.797631
20
121.403448
70
0
0
VERTEX
8
Layer 1
10
46.894436
20
119.709538
70
0
0
VERTEX
8
Layer 1
10
48.812478
20
117.816147
70
0
0
VERTEX
8
Layer 1
10
57.433972
20
146.244453
70
0
0
VERTEX
8
Layer 1
10
54.885383
20
149.492538
70
0
0
VERTEX
8
Layer 1
10
52.114376
20
152.555761
70
0
0
VERTEX
8
Layer 1
10
52.466924
20
154.779095
70
0
0
VERTEX
8
Layer 1
10
52.830457
20
157.005038
70
0
0
VERTEX
8
Layer 1
10
53.201123
20
160.132136
70
0
0
VERTEX
8
Layer 1
10
53.392785
20
163.276562
70
0
0
VERTEX
8
Layer 1
10
53.407197
20
166.428289
70
0
0
VERTEX
8
Layer 1
10
53.246110
20
169.577286
70
0
0
VERTEX
8
Layer 1
10
52.911278
20
172.713526
70
0
0
VERTEX
8
Layer 1
10
52.404453
20
175.826978
70
0
0
VERTEX
8
Layer 1
10
51.727388
20
178.907615
70
0
0
VERTEX
8
Layer 1
10
50.881835
20
181.945407
70
0
0
VERTEX
8
Layer 1
10
49.869548
20
184.930325
70
0
0
VERTEX
8
Layer 1
10
48.692278
20
187.852340
70
0
0
VERTEX
8
Layer 1
10
47.351779
20
190.701423
70
0
0
VERTEX
8
Layer 1
10
45.849803
20
193.467546
70
0
0
VERTEX
8
Layer 1
10
44.188103
20
196.140679
70
0
0
VERTEX
8
Layer 1
10
42.368432
20
198.710793
70
0
0
VERTEX
8
Layer 1
10
40.392542
20
201.167860
70
0
0
VERTEX
8
Layer 1
10
38.262186
20
203.501849
70
0
0
VERTEX
8
Layer 1
10
36.139696
20
205.570542
70
0
0
VERTEX
8
Layer 1
10
33.891614
20
207.502155
70
0
0
VERTEX
8
Layer 1
10
31.534110
20
209.300275
70
0
0
VERTEX
8
Layer 1
10
29.083352
20
210.968484
70
0
0
VERTEX
8
Layer 1
10
28.985783
20
210.903918
70
0
0
VERTEX
8
Layer 1
10
28.927969
20
210.865656
70
0
0
SEQEND
8
Layer 1
0
POLYLINE
8
Layer 1
62
7
70
0
10
0.000000
20
0.000000
66
1
0
VERTEX
8
Layer 1
10
28.637767
20
187.715816
70
0
0
VERTEX
8
Layer 1
10
26.828965
20
187.456326
70
0
0
VERTEX
8
Layer 1
10
25.138112
20
186.805256
70
0
0
VERTEX
8
Layer 1
10
23.613901
20
185.818824
70
0
0
VERTEX
8
Layer 1
10
22.305027
20
184.553246
70
0
0
VERTEX
8
Layer 1
10
21.260185
20
183.064741
70
0
0
VERTEX
8
Layer 1
10
20.528068
20
181.409526
70
0
0
VERTEX
8
Layer 1
10
20.157373
20
179.643819
70
0
0
VERTEX
8
Layer 1
10
20.196792
20
177.823837
70
0
0
VERTEX
8
Layer 1
10
20.532104
20
176.226866
70
0
0
VERTEX
8
Layer 1
10
21.161154
20
174.723311
70
0
0
VERTEX
8
Layer 1
10
22.048104
20
173.352438
70
0
0
VERTEX
8
Layer 1
10
23.157118
20
172.153518
70
0
0
VERTEX
8
Layer 1
10
24.452359
20
171.165817
70
0
0
VERTEX
8
Layer 1
10
25.897987
20
170.428605
70
0
0
VERTEX
8
Layer 1
10
27.458168
20
169.981151
70
0
0
VERTEX
8
Layer 1
10
29.097062
20
169.862722
70
0
0
VERTEX
8
Layer 1
10
30.654298
20
170.009040
70
0
0
VERTEX
8
Layer 1
10
32.158238
20
170.432186
70
0
0
VERTEX
8
Layer 1
10
33.570135
20
171.105727
70
0
0
VERTEX
8
Layer 1
10
34.851238
20
172.003231
70
0
0
VERTEX
8
Layer 1
10
35.962799
20
173.098266
70
0
0
VERTEX
8
Layer 1
10
36.866070
20
174.364398
70
0
0
VERTEX
8
Layer 1
10
37.522301
20
175.775196
70
0
0
VERTEX
8
Layer 1
10
37.892744
20
177.304227
70
0
0
VERTEX
8
Layer 1
10
38.006790
20
178.726619
70
0
0
VERTEX
8
Layer 1
10
37.891090
20
180.148394
70
0
0
VERTEX
8
Layer 1
10
37.557490
20
181.536036
70
0
0
VERTEX
8
Layer 1
10
37.017836
20
182.856030
70
0
0
VERTEX
8
Layer 1
10
36.283971
20
184.074860
70
0
0
VERTEX
8
Layer 1
10
35.367741
20
185.159010
70
0
0
VERTEX
8
Layer 1
10
34.280992
20
186.074964
70
0
0
VERTEX
8
Layer 1
10
33.035568
20
186.789207
70
0
0
VERTEX
8
Layer 1
10
30.896103
20
187.533201
70
0
0
VERTEX
8
Layer 1
10
28.637767
20
187.715816
70
0
0
VERTEX
8
Layer 1
10
28.637767
20
187.715816
70
0
0
SEQEND
8
Layer 1
0
POLYLINE
8
Layer 1
62
7
70
1
10
0.000000
20
0.000000
66
1
0
VERTEX
8
Layer 1
10
29.056619
20
215.375300
70
0
0
VERTEX
8
Layer 1
10
28.873678
20
215.253344
70
0
0
VERTEX
8
Layer 1
10
28.773429
20
215.186164
70
0
0
VERTEX
8
Layer 1
10
25.385211
20
213.021867
70
0
0
VERTEX
8
Layer 1
10
22.185849
20
210.611318
70
0
0
VERTEX
8
Layer 1
10
19.182491
20
207.972215
70
0
0
VERTEX
8
Layer 1
10
16.382289
20
205.122256
70
0
0
VERTEX
8
Layer 1
10
13.792390
20
202.079137
70
0
0
VERTEX
8
Layer 1
10
11.419946
20
198.860555
70
0
0
VERTEX
8
Layer 1
10
9.272104
20
195.484207
70
0
0
VERTEX
8
Layer 1
10
7.356015
20
191.967791
70
0
0
VERTEX
8
Layer 1
10
5.678828
20
188.329004
70
0
0
VERTEX
8
Layer 1
10
4.247694
20
184.585543
70
0
0
VERTEX
8
Layer 1
10
3.069760
20
180.755104
70
0
0
VERTEX
8
Layer 1
10
2.152178
20
176.855385
70
0
0
VERTEX
8
Layer 1
10
1.502096
20
172.904084
70
0
0
VERTEX
8
Layer 1
10
1.126664
20
168.918896
70
0
0
VERTEX
8
Layer 1
10
1.033032
20
164.917520
70
0
0
VERTEX
8
Layer 1
10
1.228349
20
160.917652
70
0
0
VERTEX
8
Layer 1
10
1.546199
20
157.505210
70
0
0
VERTEX
8
Layer 1
10
2.060339
20
154.116000
70
0
0
VERTEX
8
Layer 1
10
2.052588
20
154.107650
70
0
0
VERTEX
8
Layer 1
10
2.062923
20
154.106617
70
0
0
VERTEX
8
Layer 1
10
3.603398
20
146.207359
70
0
0
VERTEX
8
Layer 1
10
54.818350
20
147.009377
70
0
0
VERTEX
8
Layer 1
10
56.066852
20
153.685971
70
0
0
VERTEX
8
Layer 1
10
56.083993
20
153.689048
70
0
0
VERTEX
8
Layer 1
10
56.070588
20
153.703991
70
0
0
VERTEX
8
Layer 1
10
56.678182
20
157.538794
70
0
0
VERTEX
8
Layer 1
10
57.029810
20
161.408144
70
0
0
VERTEX
8
Layer 1
10
57.128540
20
165.295400
70
0
0
VERTEX
8
Layer 1
10
56.977441
20
169.183919
70
0
0
VERTEX
8
Layer 1
10
56.579582
20
173.057061
70
0
0
VERTEX
8
Layer 1
10
55.938032
20
176.898185
70
0
0
VERTEX
8
Layer 1
10
55.055859
20
180.690648
70
0
0
VERTEX
8
Layer 1
10
53.936133
20
184.417809
70
0
0
VERTEX
8
Layer 1
10
52.581922
20
188.063027
70
0
0
VERTEX
8
Layer 1
10
50.996295
20
191.609661
70
0
0
VERTEX
8
Layer 1
10
49.182321
20
195.041068
70
0
0
VERTEX
8
Layer 1
10
47.143068
20
198.340608
70
0
0
VERTEX
8
Layer 1
10
44.881605
20
201.491639
70
0
0
VERTEX
8
Layer 1
10
42.401002
20
204.477520
70
0
0
VERTEX
8
Layer 1
10
39.704326
20
207.281609
70
0
0
VERTEX
8
Layer 1
10
36.794647
20
209.887264
70
0
0
VERTEX
8
Layer 1
10
33.025195
20
212.769779
70
0
0
VERTEX
8
Layer 1
10
29.056619
20
215.375300
70
0
0
VERTEX
8
Layer 1
10
29.056619
20
215.375300
70
0
0
SEQEND
8
Layer 1
0
POLYLINE
8
Layer 1
62
7
70
1
10
0.000000
20
0.000000
66
1
0
VERTEX
8
Layer 1
10
29.052486
20
203.138840
70
0
0
VERTEX
8
Layer 1
10
29.052486
20
150.587018
70
0
0
VERTEX
8
Layer 1
10
45.296969
20
150.587018
70
0
0
VERTEX
8
Layer 1
10
45.288619
20
150.596248
70
0
0
VERTEX
8
Layer 1
10
46.296436
20
155.733648
70
0
0
VERTEX
8
Layer 1
10
46.861065
20
160.964686
70
0
0
VERTEX
8
Layer 1
10
46.961481
20
166.233666
70
0
0
VERTEX
8
Layer 1
10
46.576655
20
171.484895
70
0
0
VERTEX
8
Layer 1
10
45.685561
20
176.662678
70
0
0
VERTEX
8
Layer 1
10
44.267173
20
181.711322
70
0
0
VERTEX
8
Layer 1
10
43.353673
20
184.169812
70
0
0
VERTEX
8
Layer 1
10
42.300465
20
186.575132
70
0
0
VERTEX
8
Layer 1
10
41.104919
20
188.920321
70
0
0
VERTEX
8
Layer 1
10
39.764408
20
191.198415
70
0
0
VERTEX
8
Layer 1
10
37.490081
20
194.527022
70
0
0
VERTEX
8
Layer 1
10
34.953835
20
197.663245
70
0
0
VERTEX
8
Layer 1
10
32.144895
20
200.552160
70
0
0
VERTEX
8
Layer 1
10
29.052486
20
203.138840
70
0
0
VERTEX
8
Layer 1
10
29.052486
20
203.138840
70
0
0
SEQEND
8
Layer 1
0
POLYLINE
8
Layer 1
62
232
70
0
10
0.000000
20
0.000000
66
1
0
VERTEX
8
Layer 1
10
31.816139
20
201.067132
70
0
0
VERTEX
8
Layer 1
10
31.625168
20
200.939529
70
0
0
VERTEX
8
Layer 1
10
31.669976
20
200.714263
70
0
0
VERTEX
8
Layer 1
10
31.895242
20
200.669455
70
0
0
VERTEX
8
Layer 1
10
32.022845
20
200.860426
70
0
0
VERTEX
8
Layer 1
10
31.816139
20
201.067132
70
0
0
VERTEX
8
Layer 1
10
31.816139
20
201.067132
70
0
0
SEQEND
8
Layer 1
0
POLYLINE
8
Layer 1
62
232
70
0
10
0.000000
20
0.000000
66
1
0
VERTEX
8
Layer 1
10
36.731483
20
195.703303
70
0
0
VERTEX
8
Layer 1
10
36.540511
20
195.575700
70
0
0
VERTEX
8
Layer 1
10
36.585320
20
195.350434
70
0
0
VERTEX
8
Layer 1
10
36.810585
20
195.305626
70
0
0
VERTEX
8
Layer 1
10
36.938188
20
195.496597
70
0
0
VERTEX
8
Layer 1
10
36.877646
20
195.642760
70
0
0
VERTEX
8
Layer 1
10
36.731483
20
195.703303
70
0
0
VERTEX
8
Layer 1
10
36.731483
20
195.703303
70
0
0
SEQEND
8
Layer 1
0
POLYLINE
8
Layer 1
62
232
70
0
10
0.000000
20
0.000000
66
1
0
VERTEX
8
Layer 1
10
40.824044
20
189.669695
70
0
0
VERTEX
8
Layer 1
10
40.633073
20
189.542093
70
0
0
VERTEX
8
Layer 1
10
40.677881
20
189.316827
70
0
0
VERTEX
8
Layer 1
10
40.903147
20
189.272019
70
0
0
VERTEX
8
Layer 1
10
41.030750
20
189.462990
70
0
0
VERTEX
8
Layer 1
10
40.970207
20
189.609153
70
0
0
VERTEX
8
Layer 1
10
40.824044
20
189.669695
70
0
0
VERTEX
8
Layer 1
10
40.824044
20
189.669695
70
0
0
SEQEND
8
Layer 1
0
POLYLINE
8
Layer 1
62
232
70
0
10
0.000000
20
0.000000
66
1
0
VERTEX
8
Layer 1
10
43.852543
20
183.074821
70
0
0
VERTEX
8
Layer 1
10
43.661572
20
182.947218
70
0
0
VERTEX
8
Layer 1
10
43.706380
20
182.721953
70
0
0
VERTEX
8
Layer 1
10
43.931646
20
182.677144
70
0
0
VERTEX
8
Layer 1
10
44.059249
20
182.868116
70
0
0
VERTEX
8
Layer 1
10
43.998706
20
183.014279
70
0
0
VERTEX
8
Layer 1
10
43.852543
20
183.074821
70
0
0
VERTEX
8
Layer 1
10
43.852543
20
183.074821
70
0
0
SEQEND
8
Layer 1
0
POLYLINE
8
Layer 1
62
232
70
0
10
0.000000
20
0.000000
66
1
0
VERTEX
8
Layer 1
10
45.870110
20
176.019879
70
0
0
VERTEX
8
Layer 1
10
45.679138
20
175.892276
70
0
0
VERTEX
8
Layer 1
10
45.723947
20
175.667010
70
0
0
VERTEX
8
Layer 1
10
45.949212
20
175.622202
70
0
0
VERTEX
8
Layer 1
10
46.076815
20
175.813173
70
0
0
VERTEX
8
Layer 1
10
46.016273
20
175.959336
70
0
0
VERTEX
8
Layer 1
10
45.870110
20
176.019879
70
0
0
VERTEX
8
Layer 1
10
45.870110
20
176.019879
70
0
0
SEQEND
8
Layer 1
0
POLYLINE
8
Layer 1
62
232
70
0
10
0.000000
20
0.000000
66
1
0
VERTEX
8
Layer 1
10
46.862298
20
168.793450
70
0
0
VERTEX
8
Layer 1
10
46.655593
20
168.586745
70
0
0
VERTEX
8
Layer 1
10
46.862298
20
168.380039
70
0
0
VERTEX
8
Layer 1
10
47.069004
20
168.586745
70
0
0
VERTEX
8
Layer 1
10
47.008461
20
168.732908
70
0
0
VERTEX
8
Layer 1
10
46.862298
20
168.793450
70
0
0
VERTEX
8
Layer 1
10
46.862298
20
168.793450
70
0
0
SEQEND
8
Layer 1
0
POLYLINE
8
Layer 1
62
232
70
0
10
0.000000
20
0.000000
66
1
0
VERTEX
8
Layer 1
10
46.878837
20
161.500873
70
0
0
VERTEX
8
Layer 1
10
46.687865
20
161.373270
70
0
0
VERTEX
8
Layer 1
10
46.732674
20
161.148004
70
0
0
VERTEX
8
Layer 1
10
46.957939
20
161.103196
70
0
0
VERTEX
8
Layer 1
10
47.085542
20
161.294167
70
0
0
VERTEX
8
Layer 1
10
47.025000
20
161.440330
70
0
0
VERTEX
8
Layer 1
10
46.878837
20
161.500873
70
0
0
VERTEX
8
Layer 1
10
46.878837
20
161.500873
70
0
0
SEQEND
8
Layer 1
0
POLYLINE
8
Layer 1
62
232
70
0
10
0.000000
20
0.000000
66
1
0
VERTEX
8
Layer 1
10
46.013267
20
154.338781
70
0
0
VERTEX
8
Layer 1
10
45.822296
20
154.211178
70
0
0
VERTEX
8
Layer 1
10
45.867104
20
153.985912
70
0
0
VERTEX
8
Layer 1
10
46.092370
20
153.941104
70
0
0
VERTEX
8
Layer 1
10
46.219973
20
154.132075
70
0
0
VERTEX
8
Layer 1
10
46.159430
20
154.278238
70
0
0
VERTEX
8
Layer 1
10
46.013267
20
154.338781
70
0
0
VERTEX
8
Layer 1
10
46.013267
20
154.338781
70
0
0
SEQEND
8
Layer 1
 0 
ENDSEC
 0 
EOF