999
"DXF R12 Output" (www.mydxf.blogspot.com)
 0 
SECTION
 2 
HEADER
 9 
$ACADVER
 1 
AC1009
 9 
$EXTMIN
 10 
 0 
 20 
 0 
 9 
$EXTMAX
 10 
 8.5 
 20 
 11 
 0 
ENDSEC
 0 
SECTION
 2 
ENTITIES
0
POLYLINE
8
Layer 1
62
7
70
0
10
0.000000
20
0.000000
66
1
0
VERTEX
8
Layer 1
10
53.000000
20
22.020000
70
0
0
VERTEX
8
Layer 1
10
67.020000
20
22.020000
70
0
0
VERTEX
8
Layer 1
10
67.020000
20
7.990000
70
0
0
VERTEX
8
Layer 1
10
53.000000
20
7.990000
70
0
0
VERTEX
8
Layer 1
10
53.000000
20
22.020000
70
0
0
SEQEND
8
Layer 1
0
POLYLINE
8
Layer 1
62
7
70
0
10
0.000000
20
0.000000
66
1
0
VERTEX
8
Layer 1
10
59.990000
20
22.020000
70
0
0
VERTEX
8
Layer 1
10
61.427734
20
21.882070
70
0
0
VERTEX
8
Layer 1
10
62.754375
20
21.484687
70
0
0
VERTEX
8
Layer 1
10
63.945078
20
20.852461
70
0
0
VERTEX
8
Layer 1
10
64.975000
20
20.010000
70
0
0
VERTEX
8
Layer 1
10
65.819297
20
18.981914
70
0
0
VERTEX
8
Layer 1
10
66.453125
20
17.792812
70
0
0
VERTEX
8
Layer 1
10
66.851641
20
16.467305
70
0
0
VERTEX
8
Layer 1
10
66.990000
20
15.030000
70
0
0
VERTEX
8
Layer 1
10
66.851641
20
13.592266
70
0
0
VERTEX
8
Layer 1
10
66.453125
20
12.265625
70
0
0
VERTEX
8
Layer 1
10
65.819297
20
11.074922
70
0
0
VERTEX
8
Layer 1
10
64.975000
20
10.045000
70
0
0
VERTEX
8
Layer 1
10
63.945078
20
9.200703
70
0
0
VERTEX
8
Layer 1
10
62.754375
20
8.566875
70
0
0
VERTEX
8
Layer 1
10
61.427734
20
8.168359
70
0
0
VERTEX
8
Layer 1
10
59.990000
20
8.030000
70
0
0
VERTEX
8
Layer 1
10
58.552695
20
8.168359
70
0
0
VERTEX
8
Layer 1
10
57.227188
20
8.566875
70
0
0
VERTEX
8
Layer 1
10
56.038086
20
9.200703
70
0
0
VERTEX
8
Layer 1
10
55.010000
20
10.045000
70
0
0
VERTEX
8
Layer 1
10
54.167539
20
11.074922
70
0
0
VERTEX
8
Layer 1
10
53.535313
20
12.265625
70
0
0
VERTEX
8
Layer 1
10
53.137930
20
13.592266
70
0
0
VERTEX
8
Layer 1
10
53.000000
20
15.030000
70
0
0
VERTEX
8
Layer 1
10
53.137930
20
16.467305
70
0
0
VERTEX
8
Layer 1
10
53.535313
20
17.792812
70
0
0
VERTEX
8
Layer 1
10
54.167539
20
18.981914
70
0
0
VERTEX
8
Layer 1
10
55.010000
20
20.010000
70
0
0
VERTEX
8
Layer 1
10
56.038086
20
20.852461
70
0
0
VERTEX
8
Layer 1
10
57.227188
20
21.484687
70
0
0
VERTEX
8
Layer 1
10
58.552695
20
21.882070
70
0
0
VERTEX
8
Layer 1
10
59.990000
20
22.020000
70
0
0
VERTEX
8
Layer 1
10
59.990000
20
22.020000
70
0
0
SEQEND
8
Layer 1
0
POLYLINE
8
Layer 1
62
7
70
0
10
0.000000
20
0.000000
66
1
0
VERTEX
8
Layer 1
10
53.000000
20
22.020000
70
0
0
VERTEX
8
Layer 1
10
53.000000
20
22.020000
70
0
0
VERTEX
8
Layer 1
10
53.000000
20
22.020000
70
0
0
SEQEND
8
Layer 1
0
POLYLINE
8
Layer 1
62
7
70
0
10
0.000000
20
0.000000
66
1
0
VERTEX
8
Layer 1
10
67.010000
20
8.010000
70
0
0
VERTEX
8
Layer 1
10
67.010000
20
8.010000
70
0
0
VERTEX
8
Layer 1
10
67.010000
20
8.010000
70
0
0
SEQEND
8
Layer 1
0
POLYLINE
8
Layer 1
62
7
70
0
10
0.000000
20
0.000000
66
1
0
VERTEX
8
Layer 1
10
44.990000
20
30.000000
70
0
0
VERTEX
8
Layer 1
10
75.020000
20
30.000000
70
0
0
VERTEX
8
Layer 1
10
75.020000
20
0.000000
70
0
0
VERTEX
8
Layer 1
10
44.990000
20
0.000000
70
0
0
VERTEX
8
Layer 1
10
44.990000
20
30.000000
70
0
0
SEQEND
8
Layer 1
0
POLYLINE
8
Layer 1
62
7
70
0
10
0.000000
20
0.000000
66
1
0
VERTEX
8
Layer 1
10
72.290000
20
23.600000
70
0
0
VERTEX
8
Layer 1
10
71.850000
20
24.200000
70
0
0
VERTEX
8
Layer 1
10
71.380000
20
24.770000
70
0
0
VERTEX
8
Layer 1
10
70.880000
20
25.320000
70
0
0
VERTEX
8
Layer 1
10
70.350000
20
25.850000
70
0
0
VERTEX
8
Layer 1
10
69.800000
20
26.350000
70
0
0
VERTEX
8
Layer 1
10
69.230000
20
26.820000
70
0
0
VERTEX
8
Layer 1
10
68.630000
20
27.260000
70
0
0
VERTEX
8
Layer 1
10
68.010000
20
27.680000
70
0
0
VERTEX
8
Layer 1
10
67.370000
20
28.060000
70
0
0
VERTEX
8
Layer 1
10
66.720000
20
28.410000
70
0
0
VERTEX
8
Layer 1
10
66.040000
20
28.720000
70
0
0
VERTEX
8
Layer 1
10
65.350000
20
29.000000
70
0
0
VERTEX
8
Layer 1
10
64.650000
20
29.260000
70
0
0
VERTEX
8
Layer 1
10
63.940000
20
29.480000
70
0
0
VERTEX
8
Layer 1
10
63.220000
20
29.650000
70
0
0
VERTEX
8
Layer 1
10
62.490000
20
29.790000
70
0
0
VERTEX
8
Layer 1
10
61.750000
20
29.900000
70
0
0
VERTEX
8
Layer 1
10
61.010000
20
29.970000
70
0
0
VERTEX
8
Layer 1
10
60.270000
20
30.000000
70
0
0
VERTEX
8
Layer 1
10
59.530000
20
29.990000
70
0
0
VERTEX
8
Layer 1
10
58.780000
20
29.950000
70
0
0
VERTEX
8
Layer 1
10
58.040000
20
29.870000
70
0
0
VERTEX
8
Layer 1
10
57.310000
20
29.750000
70
0
0
VERTEX
8
Layer 1
10
56.580000
20
29.600000
70
0
0
VERTEX
8
Layer 1
10
55.860000
20
29.410000
70
0
0
VERTEX
8
Layer 1
10
55.150000
20
29.200000
70
0
0
VERTEX
8
Layer 1
10
54.450000
20
28.940000
70
0
0
VERTEX
8
Layer 1
10
53.770000
20
28.650000
70
0
0
VERTEX
8
Layer 1
10
53.100000
20
28.320000
70
0
0
VERTEX
8
Layer 1
10
52.450000
20
27.960000
70
0
0
VERTEX
8
Layer 1
10
51.820000
20
27.570000
70
0
0
VERTEX
8
Layer 1
10
51.210000
20
27.150000
70
0
0
VERTEX
8
Layer 1
10
50.610000
20
26.700000
70
0
0
VERTEX
8
Layer 1
10
50.050000
20
26.220000
70
0
0
VERTEX
8
Layer 1
10
49.500000
20
25.710000
70
0
0
VERTEX
8
Layer 1
10
48.990000
20
25.180000
70
0
0
VERTEX
8
Layer 1
10
48.500000
20
24.620000
70
0
0
VERTEX
8
Layer 1
10
48.030000
20
24.040000
70
0
0
VERTEX
8
Layer 1
10
47.600000
20
23.430000
70
0
0
VERTEX
8
Layer 1
10
47.200000
20
22.800000
70
0
0
VERTEX
8
Layer 1
10
46.820000
20
22.160000
70
0
0
VERTEX
8
Layer 1
10
46.480000
20
21.500000
70
0
0
VERTEX
8
Layer 1
10
46.180000
20
20.820000
70
0
0
VERTEX
8
Layer 1
10
45.910000
20
20.130000
70
0
0
VERTEX
8
Layer 1
10
45.670000
20
19.430000
70
0
0
VERTEX
8
Layer 1
10
45.470000
20
18.710000
70
0
0
VERTEX
8
Layer 1
10
45.310000
20
17.990000
70
0
0
VERTEX
8
Layer 1
10
45.180000
20
17.260000
70
0
0
VERTEX
8
Layer 1
10
45.080000
20
16.520000
70
0
0
VERTEX
8
Layer 1
10
45.030000
20
15.780000
70
0
0
VERTEX
8
Layer 1
10
45.010000
20
15.030000
70
0
0
VERTEX
8
Layer 1
10
45.030000
20
14.290000
70
0
0
VERTEX
8
Layer 1
10
45.080000
20
13.550000
70
0
0
VERTEX
8
Layer 1
10
45.180000
20
12.810000
70
0
0
VERTEX
8
Layer 1
10
45.300000
20
12.080000
70
0
0
VERTEX
8
Layer 1
10
45.470000
20
11.350000
70
0
0
VERTEX
8
Layer 1
10
45.670000
20
10.640000
70
0
0
VERTEX
8
Layer 1
10
45.900000
20
9.920000
70
0
0
VERTEX
8
Layer 1
10
46.170000
20
9.230000
70
0
0
VERTEX
8
Layer 1
10
46.480000
20
8.550000
70
0
0
VERTEX
8
Layer 1
10
46.820000
20
7.890000
70
0
0
VERTEX
8
Layer 1
10
47.180000
20
7.240000
70
0
0
VERTEX
8
Layer 1
10
47.580000
20
6.620000
70
0
0
VERTEX
8
Layer 1
10
48.010000
20
6.010000
70
0
0
VERTEX
8
Layer 1
10
48.470000
20
5.430000
70
0
0
VERTEX
8
Layer 1
10
48.960000
20
4.870000
70
0
0
VERTEX
8
Layer 1
10
49.480000
20
4.330000
70
0
0
VERTEX
8
Layer 1
10
50.020000
20
3.830000
70
0
0
VERTEX
8
Layer 1
10
50.590000
20
3.340000
70
0
0
VERTEX
8
Layer 1
10
51.180000
20
2.890000
70
0
0
VERTEX
8
Layer 1
10
51.790000
20
2.470000
70
0
0
VERTEX
8
Layer 1
10
52.420000
20
2.080000
70
0
0
VERTEX
8
Layer 1
10
53.080000
20
1.720000
70
0
0
VERTEX
8
Layer 1
10
53.740000
20
1.390000
70
0
0
VERTEX
8
Layer 1
10
54.430000
20
1.100000
70
0
0
VERTEX
8
Layer 1
10
55.120000
20
0.840000
70
0
0
VERTEX
8
Layer 1
10
55.830000
20
0.610000
70
0
0
VERTEX
8
Layer 1
10
56.550000
20
0.420000
70
0
0
VERTEX
8
Layer 1
10
57.280000
20
0.270000
70
0
0
VERTEX
8
Layer 1
10
58.020000
20
0.150000
70
0
0
VERTEX
8
Layer 1
10
58.750000
20
0.070000
70
0
0
VERTEX
8
Layer 1
10
59.500000
20
0.030000
70
0
0
VERTEX
8
Layer 1
10
60.240000
20
0.020000
70
0
0
VERTEX
8
Layer 1
10
60.980000
20
0.050000
70
0
0
VERTEX
8
Layer 1
10
61.720000
20
0.120000
70
0
0
VERTEX
8
Layer 1
10
62.460000
20
0.230000
70
0
0
VERTEX
8
Layer 1
10
63.190000
20
0.370000
70
0
0
VERTEX
8
Layer 1
10
63.910000
20
0.540000
70
0
0
VERTEX
8
Layer 1
10
64.630000
20
0.750000
70
0
0
VERTEX
8
Layer 1
10
65.330000
20
0.990000
70
0
0
VERTEX
8
Layer 1
10
66.020000
20
1.270000
70
0
0
VERTEX
8
Layer 1
10
66.690000
20
1.590000
70
0
0
VERTEX
8
Layer 1
10
67.350000
20
1.940000
70
0
0
VERTEX
8
Layer 1
10
67.980000
20
2.320000
70
0
0
VERTEX
8
Layer 1
10
68.600000
20
2.730000
70
0
0
VERTEX
8
Layer 1
10
69.200000
20
3.170000
70
0
0
VERTEX
8
Layer 1
10
69.780000
20
3.650000
70
0
0
VERTEX
8
Layer 1
10
70.330000
20
4.140000
70
0
0
VERTEX
8
Layer 1
10
70.850000
20
4.670000
70
0
0
VERTEX
8
Layer 1
10
71.350000
20
5.220000
70
0
0
VERTEX
8
Layer 1
10
71.820000
20
5.800000
70
0
0
VERTEX
8
Layer 1
10
72.270000
20
6.400000
70
0
0
VERTEX
8
Layer 1
10
69.620000
20
8.250000
70
0
0
VERTEX
8
Layer 1
10
69.260000
20
7.790000
70
0
0
VERTEX
8
Layer 1
10
68.890000
20
7.330000
70
0
0
VERTEX
8
Layer 1
10
68.500000
20
6.900000
70
0
0
VERTEX
8
Layer 1
10
68.090000
20
6.490000
70
0
0
VERTEX
8
Layer 1
10
67.660000
20
6.100000
70
0
0
VERTEX
8
Layer 1
10
67.210000
20
5.730000
70
0
0
VERTEX
8
Layer 1
10
66.740000
20
5.380000
70
0
0
VERTEX
8
Layer 1
10
66.260000
20
5.060000
70
0
0
VERTEX
8
Layer 1
10
65.750000
20
4.760000
70
0
0
VERTEX
8
Layer 1
10
65.240000
20
4.480000
70
0
0
VERTEX
8
Layer 1
10
64.710000
20
4.250000
70
0
0
VERTEX
8
Layer 1
10
64.170000
20
4.020000
70
0
0
VERTEX
8
Layer 1
10
63.620000
20
3.830000
70
0
0
VERTEX
8
Layer 1
10
63.060000
20
3.660000
70
0
0
VERTEX
8
Layer 1
10
62.500000
20
3.520000
70
0
0
VERTEX
8
Layer 1
10
61.930000
20
3.410000
70
0
0
VERTEX
8
Layer 1
10
61.350000
20
3.330000
70
0
0
VERTEX
8
Layer 1
10
60.770000
20
3.280000
70
0
0
VERTEX
8
Layer 1
10
60.190000
20
3.250000
70
0
0
VERTEX
8
Layer 1
10
59.600000
20
3.260000
70
0
0
VERTEX
8
Layer 1
10
59.020000
20
3.290000
70
0
0
VERTEX
8
Layer 1
10
58.440000
20
3.350000
70
0
0
VERTEX
8
Layer 1
10
57.860000
20
3.440000
70
0
0
VERTEX
8
Layer 1
10
57.290000
20
3.560000
70
0
0
VERTEX
8
Layer 1
10
56.730000
20
3.710000
70
0
0
VERTEX
8
Layer 1
10
56.170000
20
3.880000
70
0
0
VERTEX
8
Layer 1
10
55.630000
20
4.090000
70
0
0
VERTEX
8
Layer 1
10
55.090000
20
4.330000
70
0
0
VERTEX
8
Layer 1
10
54.570000
20
4.580000
70
0
0
VERTEX
8
Layer 1
10
54.060000
20
4.860000
70
0
0
VERTEX
8
Layer 1
10
53.560000
20
5.170000
70
0
0
VERTEX
8
Layer 1
10
53.080000
20
5.500000
70
0
0
VERTEX
8
Layer 1
10
52.620000
20
5.850000
70
0
0
VERTEX
8
Layer 1
10
52.170000
20
6.230000
70
0
0
VERTEX
8
Layer 1
10
51.750000
20
6.630000
70
0
0
VERTEX
8
Layer 1
10
51.340000
20
7.050000
70
0
0
VERTEX
8
Layer 1
10
50.960000
20
7.490000
70
0
0
VERTEX
8
Layer 1
10
50.600000
20
7.940000
70
0
0
VERTEX
8
Layer 1
10
50.260000
20
8.420000
70
0
0
VERTEX
8
Layer 1
10
49.950000
20
8.910000
70
0
0
VERTEX
8
Layer 1
10
49.660000
20
9.410000
70
0
0
VERTEX
8
Layer 1
10
49.390000
20
9.930000
70
0
0
VERTEX
8
Layer 1
10
49.160000
20
10.460000
70
0
0
VERTEX
8
Layer 1
10
48.940000
20
11.010000
70
0
0
VERTEX
8
Layer 1
10
48.760000
20
11.560000
70
0
0
VERTEX
8
Layer 1
10
48.600000
20
12.120000
70
0
0
VERTEX
8
Layer 1
10
48.470000
20
12.690000
70
0
0
VERTEX
8
Layer 1
10
48.370000
20
13.260000
70
0
0
VERTEX
8
Layer 1
10
48.300000
20
13.840000
70
0
0
VERTEX
8
Layer 1
10
48.250000
20
14.420000
70
0
0
VERTEX
8
Layer 1
10
48.240000
20
15.010000
70
0
0
VERTEX
8
Layer 1
10
48.250000
20
15.590000
70
0
0
VERTEX
8
Layer 1
10
48.300000
20
16.170000
70
0
0
VERTEX
8
Layer 1
10
48.370000
20
16.750000
70
0
0
VERTEX
8
Layer 1
10
48.470000
20
17.320000
70
0
0
VERTEX
8
Layer 1
10
48.600000
20
17.890000
70
0
0
VERTEX
8
Layer 1
10
48.760000
20
18.450000
70
0
0
VERTEX
8
Layer 1
10
48.940000
20
19.010000
70
0
0
VERTEX
8
Layer 1
10
49.150000
20
19.550000
70
0
0
VERTEX
8
Layer 1
10
49.390000
20
20.080000
70
0
0
VERTEX
8
Layer 1
10
49.660000
20
20.600000
70
0
0
VERTEX
8
Layer 1
10
49.950000
20
21.110000
70
0
0
VERTEX
8
Layer 1
10
50.260000
20
21.600000
70
0
0
VERTEX
8
Layer 1
10
50.600000
20
22.070000
70
0
0
VERTEX
8
Layer 1
10
50.970000
20
22.530000
70
0
0
VERTEX
8
Layer 1
10
51.360000
20
22.970000
70
0
0
VERTEX
8
Layer 1
10
51.760000
20
23.390000
70
0
0
VERTEX
8
Layer 1
10
52.190000
20
23.790000
70
0
0
VERTEX
8
Layer 1
10
52.630000
20
24.160000
70
0
0
VERTEX
8
Layer 1
10
53.090000
20
24.520000
70
0
0
VERTEX
8
Layer 1
10
53.570000
20
24.850000
70
0
0
VERTEX
8
Layer 1
10
54.070000
20
25.150000
70
0
0
VERTEX
8
Layer 1
10
54.580000
20
25.440000
70
0
0
VERTEX
8
Layer 1
10
55.110000
20
25.690000
70
0
0
VERTEX
8
Layer 1
10
55.640000
20
25.910000
70
0
0
VERTEX
8
Layer 1
10
56.190000
20
26.110000
70
0
0
VERTEX
8
Layer 1
10
56.740000
20
26.290000
70
0
0
VERTEX
8
Layer 1
10
57.310000
20
26.440000
70
0
0
VERTEX
8
Layer 1
10
57.880000
20
26.560000
70
0
0
VERTEX
8
Layer 1
10
58.450000
20
26.650000
70
0
0
VERTEX
8
Layer 1
10
59.030000
20
26.710000
70
0
0
VERTEX
8
Layer 1
10
59.620000
20
26.740000
70
0
0
VERTEX
8
Layer 1
10
60.200000
20
26.750000
70
0
0
VERTEX
8
Layer 1
10
60.780000
20
26.720000
70
0
0
VERTEX
8
Layer 1
10
61.360000
20
26.670000
70
0
0
VERTEX
8
Layer 1
10
61.940000
20
26.590000
70
0
0
VERTEX
8
Layer 1
10
62.510000
20
26.480000
70
0
0
VERTEX
8
Layer 1
10
63.080000
20
26.340000
70
0
0
VERTEX
8
Layer 1
10
63.640000
20
26.170000
70
0
0
VERTEX
8
Layer 1
10
64.190000
20
25.980000
70
0
0
VERTEX
8
Layer 1
10
64.730000
20
25.760000
70
0
0
VERTEX
8
Layer 1
10
65.250000
20
25.500000
70
0
0
VERTEX
8
Layer 1
10
65.770000
20
25.230000
70
0
0
VERTEX
8
Layer 1
10
66.270000
20
24.930000
70
0
0
VERTEX
8
Layer 1
10
66.750000
20
24.600000
70
0
0
VERTEX
8
Layer 1
10
67.220000
20
24.260000
70
0
0
VERTEX
8
Layer 1
10
67.670000
20
23.890000
70
0
0
VERTEX
8
Layer 1
10
68.110000
20
23.500000
70
0
0
VERTEX
8
Layer 1
10
68.520000
20
23.080000
70
0
0
VERTEX
8
Layer 1
10
68.910000
20
22.650000
70
0
0
VERTEX
8
Layer 1
10
69.280000
20
22.200000
70
0
0
VERTEX
8
Layer 1
10
69.610000
20
21.730000
70
0
0
VERTEX
8
Layer 1
10
72.290000
20
23.600000
70
0
0
VERTEX
8
Layer 1
10
72.290000
20
23.600000
70
0
0
SEQEND
8
Layer 1
0
POLYLINE
8
Layer 1
62
7
70
0
10
0.000000
20
0.000000
66
1
0
VERTEX
8
Layer 1
10
45.000000
20
0.040000
70
0
0
VERTEX
8
Layer 1
10
45.000000
20
0.040000
70
0
0
VERTEX
8
Layer 1
10
45.000000
20
0.040000
70
0
0
SEQEND
8
Layer 1
0
POLYLINE
8
Layer 1
62
7
70
0
10
0.000000
20
0.000000
66
1
0
VERTEX
8
Layer 1
10
75.000000
20
29.980000
70
0
0
VERTEX
8
Layer 1
10
75.000000
20
29.980000
70
0
0
VERTEX
8
Layer 1
10
75.000000
20
29.980000
70
0
0
SEQEND
8
Layer 1
0
POLYLINE
8
Layer 1
62
7
70
0
10
0.000000
20
0.000000
66
1
0
VERTEX
8
Layer 1
10
90.000000
20
30.020000
70
0
0
VERTEX
8
Layer 1
10
120.030000
20
30.020000
70
0
0
VERTEX
8
Layer 1
10
120.030000
20
0.000000
70
0
0
VERTEX
8
Layer 1
10
90.000000
20
0.000000
70
0
0
VERTEX
8
Layer 1
10
90.000000
20
30.020000
70
0
0
SEQEND
8
Layer 1
0
POLYLINE
8
Layer 1
62
7
70
0
10
0.000000
20
0.000000
66
1
0
VERTEX
8
Layer 1
10
105.000000
20
30.020000
70
0
0
VERTEX
8
Layer 1
10
106.569214
20
29.944927
70
0
0
VERTEX
8
Layer 1
10
108.084961
20
29.724102
70
0
0
VERTEX
8
Layer 1
10
110.929688
20
28.871562
70
0
0
VERTEX
8
Layer 1
10
113.481445
20
27.515117
70
0
0
VERTEX
8
Layer 1
10
115.687500
20
25.707500
70
0
0
VERTEX
8
Layer 1
10
117.495117
20
23.501445
70
0
0
VERTEX
8
Layer 1
10
118.851562
20
20.949687
70
0
0
VERTEX
8
Layer 1
10
119.704102
20
18.104961
70
0
0
VERTEX
8
Layer 1
10
119.924927
20
16.589214
70
0
0
VERTEX
8
Layer 1
10
120.000000
20
15.020000
70
0
0
VERTEX
8
Layer 1
10
119.924927
20
13.450786
70
0
0
VERTEX
8
Layer 1
10
119.704102
20
11.935039
70
0
0
VERTEX
8
Layer 1
10
118.851562
20
9.090312
70
0
0
VERTEX
8
Layer 1
10
117.495117
20
6.538555
70
0
0
VERTEX
8
Layer 1
10
115.687500
20
4.332500
70
0
0
VERTEX
8
Layer 1
10
113.481445
20
2.524883
70
0
0
VERTEX
8
Layer 1
10
110.929688
20
1.168437
70
0
0
VERTEX
8
Layer 1
10
108.084961
20
0.315898
70
0
0
VERTEX
8
Layer 1
10
106.569214
20
0.095073
70
0
0
VERTEX
8
Layer 1
10
105.000000
20
0.020000
70
0
0
VERTEX
8
Layer 1
10
103.430786
20
0.095073
70
0
0
VERTEX
8
Layer 1
10
101.915039
20
0.315898
70
0
0
VERTEX
8
Layer 1
10
99.070312
20
1.168437
70
0
0
VERTEX
8
Layer 1
10
96.518555
20
2.524883
70
0
0
VERTEX
8
Layer 1
10
94.312500
20
4.332500
70
0
0
VERTEX
8
Layer 1
10
92.504883
20
6.538555
70
0
0
VERTEX
8
Layer 1
10
91.148438
20
9.090312
70
0
0
VERTEX
8
Layer 1
10
90.295898
20
11.935039
70
0
0
VERTEX
8
Layer 1
10
90.075073
20
13.450786
70
0
0
VERTEX
8
Layer 1
10
90.000000
20
15.020000
70
0
0
VERTEX
8
Layer 1
10
90.075073
20
16.589214
70
0
0
VERTEX
8
Layer 1
10
90.295898
20
18.104961
70
0
0
VERTEX
8
Layer 1
10
91.148438
20
20.949687
70
0
0
VERTEX
8
Layer 1
10
92.504883
20
23.501445
70
0
0
VERTEX
8
Layer 1
10
94.312500
20
25.707500
70
0
0
VERTEX
8
Layer 1
10
96.518555
20
27.515117
70
0
0
VERTEX
8
Layer 1
10
99.070312
20
28.871562
70
0
0
VERTEX
8
Layer 1
10
101.915039
20
29.724102
70
0
0
VERTEX
8
Layer 1
10
103.430786
20
29.944927
70
0
0
VERTEX
8
Layer 1
10
105.000000
20
30.020000
70
0
0
VERTEX
8
Layer 1
10
105.000000
20
30.020000
70
0
0
SEQEND
8
Layer 1
0
POLYLINE
8
Layer 1
62
7
70
0
10
0.000000
20
0.000000
66
1
0
VERTEX
8
Layer 1
10
104.990000
20
26.730000
70
0
0
VERTEX
8
Layer 1
10
107.396270
20
26.499199
70
0
0
VERTEX
8
Layer 1
10
109.615156
20
25.834219
70
0
0
VERTEX
8
Layer 1
10
111.605527
20
24.776191
70
0
0
VERTEX
8
Layer 1
10
113.326250
20
23.366250
70
0
0
VERTEX
8
Layer 1
10
114.736191
20
21.645527
70
0
0
VERTEX
8
Layer 1
10
115.794219
20
19.655156
70
0
0
VERTEX
8
Layer 1
10
116.459199
20
17.436270
70
0
0
VERTEX
8
Layer 1
10
116.690000
20
15.030000
70
0
0
VERTEX
8
Layer 1
10
116.459199
20
12.623730
70
0
0
VERTEX
8
Layer 1
10
115.794219
20
10.404844
70
0
0
VERTEX
8
Layer 1
10
114.736191
20
8.414473
70
0
0
VERTEX
8
Layer 1
10
113.326250
20
6.693750
70
0
0
VERTEX
8
Layer 1
10
111.605527
20
5.283809
70
0
0
VERTEX
8
Layer 1
10
109.615156
20
4.225781
70
0
0
VERTEX
8
Layer 1
10
107.396270
20
3.560801
70
0
0
VERTEX
8
Layer 1
10
104.990000
20
3.330000
70
0
0
VERTEX
8
Layer 1
10
102.583730
20
3.560801
70
0
0
VERTEX
8
Layer 1
10
100.364844
20
4.225781
70
0
0
VERTEX
8
Layer 1
10
98.374473
20
5.283809
70
0
0
VERTEX
8
Layer 1
10
96.653750
20
6.693750
70
0
0
VERTEX
8
Layer 1
10
95.243809
20
8.414473
70
0
0
VERTEX
8
Layer 1
10
94.185781
20
10.404844
70
0
0
VERTEX
8
Layer 1
10
93.520801
20
12.623730
70
0
0
VERTEX
8
Layer 1
10
93.290000
20
15.030000
70
0
0
VERTEX
8
Layer 1
10
93.520801
20
17.436270
70
0
0
VERTEX
8
Layer 1
10
94.185781
20
19.655156
70
0
0
VERTEX
8
Layer 1
10
95.243809
20
21.645527
70
0
0
VERTEX
8
Layer 1
10
96.653750
20
23.366250
70
0
0
VERTEX
8
Layer 1
10
98.374473
20
24.776191
70
0
0
VERTEX
8
Layer 1
10
100.364844
20
25.834219
70
0
0
VERTEX
8
Layer 1
10
102.583730
20
26.499199
70
0
0
VERTEX
8
Layer 1
10
104.990000
20
26.730000
70
0
0
VERTEX
8
Layer 1
10
104.990000
20
26.730000
70
0
0
SEQEND
8
Layer 1
0
POLYLINE
8
Layer 1
62
7
70
0
10
0.000000
20
0.000000
66
1
0
VERTEX
8
Layer 1
10
90.000000
20
30.020000
70
0
0
VERTEX
8
Layer 1
10
90.000000
20
30.020000
70
0
0
VERTEX
8
Layer 1
10
90.000000
20
30.020000
70
0
0
SEQEND
8
Layer 1
0
POLYLINE
8
Layer 1
62
7
70
0
10
0.000000
20
0.000000
66
1
0
VERTEX
8
Layer 1
10
120.010000
20
0.010000
70
0
0
VERTEX
8
Layer 1
10
120.010000
20
0.010000
70
0
0
VERTEX
8
Layer 1
10
120.010000
20
0.010000
70
0
0
SEQEND
8
Layer 1
0
POLYLINE
8
Layer 1
62
7
70
0
10
0.000000
20
0.000000
66
1
0
VERTEX
8
Layer 1
10
0.000000
20
30.020000
70
0
0
VERTEX
8
Layer 1
10
30.020000
20
30.020000
70
0
0
VERTEX
8
Layer 1
10
30.020000
20
0.000000
70
0
0
VERTEX
8
Layer 1
10
0.000000
20
0.000000
70
0
0
VERTEX
8
Layer 1
10
0.000000
20
30.020000
70
0
0
SEQEND
8
Layer 1
0
POLYLINE
8
Layer 1
62
7
70
0
10
0.000000
20
0.000000
66
1
0
VERTEX
8
Layer 1
10
15.000000
20
30.020000
70
0
0
VERTEX
8
Layer 1
10
16.569214
20
29.944927
70
0
0
VERTEX
8
Layer 1
10
18.084961
20
29.724102
70
0
0
VERTEX
8
Layer 1
10
20.929688
20
28.871562
70
0
0
VERTEX
8
Layer 1
10
23.481445
20
27.515117
70
0
0
VERTEX
8
Layer 1
10
25.687500
20
25.707500
70
0
0
VERTEX
8
Layer 1
10
27.495117
20
23.501445
70
0
0
VERTEX
8
Layer 1
10
28.851562
20
20.949687
70
0
0
VERTEX
8
Layer 1
10
29.704102
20
18.104961
70
0
0
VERTEX
8
Layer 1
10
29.924927
20
16.589214
70
0
0
VERTEX
8
Layer 1
10
30.000000
20
15.020000
70
0
0
VERTEX
8
Layer 1
10
29.924927
20
13.450786
70
0
0
VERTEX
8
Layer 1
10
29.704102
20
11.935039
70
0
0
VERTEX
8
Layer 1
10
28.851562
20
9.090312
70
0
0
VERTEX
8
Layer 1
10
27.495117
20
6.538555
70
0
0
VERTEX
8
Layer 1
10
25.687500
20
4.332500
70
0
0
VERTEX
8
Layer 1
10
23.481445
20
2.524883
70
0
0
VERTEX
8
Layer 1
10
20.929688
20
1.168437
70
0
0
VERTEX
8
Layer 1
10
18.084961
20
0.315898
70
0
0
VERTEX
8
Layer 1
10
16.569214
20
0.095073
70
0
0
VERTEX
8
Layer 1
10
15.000000
20
0.020000
70
0
0
VERTEX
8
Layer 1
10
13.430786
20
0.095073
70
0
0
VERTEX
8
Layer 1
10
11.915039
20
0.315898
70
0
0
VERTEX
8
Layer 1
10
9.070312
20
1.168437
70
0
0
VERTEX
8
Layer 1
10
6.518555
20
2.524883
70
0
0
VERTEX
8
Layer 1
10
4.312500
20
4.332500
70
0
0
VERTEX
8
Layer 1
10
2.504883
20
6.538555
70
0
0
VERTEX
8
Layer 1
10
1.148438
20
9.090312
70
0
0
VERTEX
8
Layer 1
10
0.295898
20
11.935039
70
0
0
VERTEX
8
Layer 1
10
0.075073
20
13.450786
70
0
0
VERTEX
8
Layer 1
10
0.000000
20
15.020000
70
0
0
VERTEX
8
Layer 1
10
0.075073
20
16.589214
70
0
0
VERTEX
8
Layer 1
10
0.295898
20
18.104961
70
0
0
VERTEX
8
Layer 1
10
1.148438
20
20.949687
70
0
0
VERTEX
8
Layer 1
10
2.504883
20
23.501445
70
0
0
VERTEX
8
Layer 1
10
4.312500
20
25.707500
70
0
0
VERTEX
8
Layer 1
10
6.518555
20
27.515117
70
0
0
VERTEX
8
Layer 1
10
9.070312
20
28.871562
70
0
0
VERTEX
8
Layer 1
10
11.915039
20
29.724102
70
0
0
VERTEX
8
Layer 1
10
13.430786
20
29.944927
70
0
0
VERTEX
8
Layer 1
10
15.000000
20
30.020000
70
0
0
VERTEX
8
Layer 1
10
15.000000
20
30.020000
70
0
0
SEQEND
8
Layer 1
0
POLYLINE
8
Layer 1
62
7
70
0
10
0.000000
20
0.000000
66
1
0
VERTEX
8
Layer 1
10
14.990000
20
26.730000
70
0
0
VERTEX
8
Layer 1
10
17.396270
20
26.499199
70
0
0
VERTEX
8
Layer 1
10
19.615156
20
25.834219
70
0
0
VERTEX
8
Layer 1
10
21.605527
20
24.776191
70
0
0
VERTEX
8
Layer 1
10
23.326250
20
23.366250
70
0
0
VERTEX
8
Layer 1
10
24.736191
20
21.645527
70
0
0
VERTEX
8
Layer 1
10
25.794219
20
19.655156
70
0
0
VERTEX
8
Layer 1
10
26.459199
20
17.436270
70
0
0
VERTEX
8
Layer 1
10
26.690000
20
15.030000
70
0
0
VERTEX
8
Layer 1
10
26.459199
20
12.623730
70
0
0
VERTEX
8
Layer 1
10
25.794219
20
10.404844
70
0
0
VERTEX
8
Layer 1
10
24.736191
20
8.414473
70
0
0
VERTEX
8
Layer 1
10
23.326250
20
6.693750
70
0
0
VERTEX
8
Layer 1
10
21.605527
20
5.283809
70
0
0
VERTEX
8
Layer 1
10
19.615156
20
4.225781
70
0
0
VERTEX
8
Layer 1
10
17.396270
20
3.560801
70
0
0
VERTEX
8
Layer 1
10
14.990000
20
3.330000
70
0
0
VERTEX
8
Layer 1
10
12.583730
20
3.560801
70
0
0
VERTEX
8
Layer 1
10
10.364844
20
4.225781
70
0
0
VERTEX
8
Layer 1
10
8.374473
20
5.283809
70
0
0
VERTEX
8
Layer 1
10
6.653750
20
6.693750
70
0
0
VERTEX
8
Layer 1
10
5.243809
20
8.414473
70
0
0
VERTEX
8
Layer 1
10
4.185781
20
10.404844
70
0
0
VERTEX
8
Layer 1
10
3.520801
20
12.623730
70
0
0
VERTEX
8
Layer 1
10
3.290000
20
15.030000
70
0
0
VERTEX
8
Layer 1
10
3.520801
20
17.436270
70
0
0
VERTEX
8
Layer 1
10
4.185781
20
19.655156
70
0
0
VERTEX
8
Layer 1
10
5.243809
20
21.645527
70
0
0
VERTEX
8
Layer 1
10
6.653750
20
23.366250
70
0
0
VERTEX
8
Layer 1
10
8.374473
20
24.776191
70
0
0
VERTEX
8
Layer 1
10
10.364844
20
25.834219
70
0
0
VERTEX
8
Layer 1
10
12.583730
20
26.499199
70
0
0
VERTEX
8
Layer 1
10
14.990000
20
26.730000
70
0
0
VERTEX
8
Layer 1
10
14.990000
20
26.730000
70
0
0
SEQEND
8
Layer 1
0
POLYLINE
8
Layer 1
62
7
70
0
10
0.000000
20
0.000000
66
1
0
VERTEX
8
Layer 1
10
0.000000
20
30.020000
70
0
0
VERTEX
8
Layer 1
10
0.000000
20
30.020000
70
0
0
VERTEX
8
Layer 1
10
0.000000
20
30.020000
70
0
0
SEQEND
8
Layer 1
0
POLYLINE
8
Layer 1
62
7
70
0
10
0.000000
20
0.000000
66
1
0
VERTEX
8
Layer 1
10
30.010000
20
0.010000
70
0
0
VERTEX
8
Layer 1
10
30.010000
20
0.010000
70
0
0
VERTEX
8
Layer 1
10
30.010000
20
0.010000
70
0
0
SEQEND
8
Layer 1
0
POLYLINE
8
Layer 1
62
7
70
0
10
0.000000
20
0.000000
66
1
0
VERTEX
8
Layer 1
10
29.000000
20
16.520000
70
0
0
VERTEX
8
Layer 1
10
46.010000
20
16.520000
70
0
0
VERTEX
8
Layer 1
10
46.010000
20
13.510000
70
0
0
VERTEX
8
Layer 1
10
29.000000
20
13.510000
70
0
0
VERTEX
8
Layer 1
10
29.000000
20
16.520000
70
0
0
SEQEND
8
Layer 1
0
POLYLINE
8
Layer 1
62
7
70
0
10
0.000000
20
0.000000
66
1
0
VERTEX
8
Layer 1
10
37.500000
20
13.520000
70
0
0
VERTEX
8
Layer 1
10
29.000000
20
13.520000
70
0
0
VERTEX
8
Layer 1
10
29.000000
20
16.520000
70
0
0
VERTEX
8
Layer 1
10
46.000000
20
16.520000
70
0
0
VERTEX
8
Layer 1
10
46.000000
20
13.520000
70
0
0
VERTEX
8
Layer 1
10
37.500000
20
13.520000
70
0
0
VERTEX
8
Layer 1
10
37.500000
20
13.520000
70
0
0
SEQEND
8
Layer 1
0
POLYLINE
8
Layer 1
62
7
70
0
10
0.000000
20
0.000000
66
1
0
VERTEX
8
Layer 1
10
64.500000
20
16.520000
70
0
0
VERTEX
8
Layer 1
10
90.510000
20
16.520000
70
0
0
VERTEX
8
Layer 1
10
90.510000
20
13.510000
70
0
0
VERTEX
8
Layer 1
10
64.500000
20
13.510000
70
0
0
VERTEX
8
Layer 1
10
64.500000
20
16.520000
70
0
0
SEQEND
8
Layer 1
0
POLYLINE
8
Layer 1
62
7
70
0
10
0.000000
20
0.000000
66
1
0
VERTEX
8
Layer 1
10
77.500000
20
13.520000
70
0
0
VERTEX
8
Layer 1
10
64.500000
20
13.520000
70
0
0
VERTEX
8
Layer 1
10
64.500000
20
16.520000
70
0
0
VERTEX
8
Layer 1
10
90.500000
20
16.520000
70
0
0
VERTEX
8
Layer 1
10
90.500000
20
13.520000
70
0
0
VERTEX
8
Layer 1
10
77.500000
20
13.520000
70
0
0
VERTEX
8
Layer 1
10
77.500000
20
13.520000
70
0
0
SEQEND
8
Layer 1
0
POLYLINE
8
Layer 1
62
7
70
0
10
0.000000
20
0.000000
66
1
0
VERTEX
8
Layer 1
10
7.500000
20
16.520000
70
0
0
VERTEX
8
Layer 1
10
22.510000
20
16.520000
70
0
0
VERTEX
8
Layer 1
10
22.510000
20
13.510000
70
0
0
VERTEX
8
Layer 1
10
7.500000
20
13.510000
70
0
0
VERTEX
8
Layer 1
10
7.500000
20
16.520000
70
0
0
SEQEND
8
Layer 1
0
POLYLINE
8
Layer 1
62
7
70
0
10
0.000000
20
0.000000
66
1
0
VERTEX
8
Layer 1
10
15.000000
20
13.520000
70
0
0
VERTEX
8
Layer 1
10
7.500000
20
13.520000
70
0
0
VERTEX
8
Layer 1
10
7.500000
20
16.520000
70
0
0
VERTEX
8
Layer 1
10
22.500000
20
16.520000
70
0
0
VERTEX
8
Layer 1
10
22.500000
20
13.520000
70
0
0
VERTEX
8
Layer 1
10
15.000000
20
13.520000
70
0
0
VERTEX
8
Layer 1
10
15.000000
20
13.520000
70
0
0
SEQEND
8
Layer 1
0
POLYLINE
8
Layer 1
62
7
70
0
10
0.000000
20
0.000000
66
1
0
VERTEX
8
Layer 1
10
97.500000
20
16.520000
70
0
0
VERTEX
8
Layer 1
10
112.510000
20
16.520000
70
0
0
VERTEX
8
Layer 1
10
112.510000
20
13.510000
70
0
0
VERTEX
8
Layer 1
10
97.500000
20
13.510000
70
0
0
VERTEX
8
Layer 1
10
97.500000
20
16.520000
70
0
0
SEQEND
8
Layer 1
0
POLYLINE
8
Layer 1
62
7
70
0
10
0.000000
20
0.000000
66
1
0
VERTEX
8
Layer 1
10
105.000000
20
13.520000
70
0
0
VERTEX
8
Layer 1
10
97.500000
20
13.520000
70
0
0
VERTEX
8
Layer 1
10
97.500000
20
16.520000
70
0
0
VERTEX
8
Layer 1
10
112.500000
20
16.520000
70
0
0
VERTEX
8
Layer 1
10
112.500000
20
13.520000
70
0
0
VERTEX
8
Layer 1
10
105.000000
20
13.520000
70
0
0
VERTEX
8
Layer 1
10
105.000000
20
13.520000
70
0
0
SEQEND
8
Layer 1
0
POLYLINE
8
Layer 1
62
7
70
0
10
0.000000
20
0.000000
66
1
0
VERTEX
8
Layer 1
10
103.500000
20
22.520000
70
0
0
VERTEX
8
Layer 1
10
106.510000
20
22.520000
70
0
0
VERTEX
8
Layer 1
10
106.510000
20
7.510000
70
0
0
VERTEX
8
Layer 1
10
103.500000
20
7.510000
70
0
0
VERTEX
8
Layer 1
10
103.500000
20
22.520000
70
0
0
SEQEND
8
Layer 1
0
POLYLINE
8
Layer 1
62
7
70
0
10
0.000000
20
0.000000
66
1
0
VERTEX
8
Layer 1
10
105.000000
20
7.520000
70
0
0
VERTEX
8
Layer 1
10
103.500000
20
7.520000
70
0
0
VERTEX
8
Layer 1
10
103.500000
20
22.520000
70
0
0
VERTEX
8
Layer 1
10
106.500000
20
22.520000
70
0
0
VERTEX
8
Layer 1
10
106.500000
20
7.520000
70
0
0
VERTEX
8
Layer 1
10
105.000000
20
7.520000
70
0
0
VERTEX
8
Layer 1
10
105.000000
20
7.520000
70
0
0
SEQEND
8
Layer 1
 0 
ENDSEC
 0 
EOF