999
"DXF R12 Output" (www.mydxf.blogspot.com)
 0 
SECTION
 2 
HEADER
 9 
$ACADVER
 1 
AC1009
 9 
$EXTMIN
 10 
 0 
 20 
 0 
 9 
$EXTMAX
 10 
 8.5 
 20 
 11 
 0 
ENDSEC
 0 
SECTION
 2 
ENTITIES
0
POLYLINE
8
Layer 1
62
7
70
1
10
0.000000
20
0.000000
66
1
0
VERTEX
8
Layer 1
10
0.000004
20
297.000009
70
0
0
VERTEX
8
Layer 1
10
0.000004
20
291.262199
70
0
0
VERTEX
8
Layer 1
10
0.172294
20
290.095927
70
0
0
VERTEX
8
Layer 1
10
0.686047
20
289.257084
70
0
0
VERTEX
8
Layer 1
10
1.536583
20
288.750348
70
0
0
VERTEX
8
Layer 1
10
2.719227
20
288.580397
70
0
0
VERTEX
8
Layer 1
10
4.490464
20
288.580397
70
0
0
VERTEX
8
Layer 1
10
5.675057
20
288.750348
70
0
0
VERTEX
8
Layer 1
10
6.529882
20
289.257084
70
0
0
VERTEX
8
Layer 1
10
7.047922
20
290.095927
70
0
0
VERTEX
8
Layer 1
10
7.222161
20
291.262199
70
0
0
VERTEX
8
Layer 1
10
7.222161
20
297.000009
70
0
0
VERTEX
8
Layer 1
10
5.775235
20
297.000009
70
0
0
VERTEX
8
Layer 1
10
5.775235
20
291.374461
70
0
0
VERTEX
8
Layer 1
10
5.692208
20
290.815297
70
0
0
VERTEX
8
Layer 1
10
5.438450
20
290.399969
70
0
0
VERTEX
8
Layer 1
10
5.006945
20
290.141338
70
0
0
VERTEX
8
Layer 1
10
4.390676
20
290.052270
70
0
0
VERTEX
8
Layer 1
10
2.893856
20
290.052270
70
0
0
VERTEX
8
Layer 1
10
2.265114
20
290.141338
70
0
0
VERTEX
8
Layer 1
10
1.830490
20
290.399969
70
0
0
VERTEX
8
Layer 1
10
1.578292
20
290.815297
70
0
0
VERTEX
8
Layer 1
10
1.496824
20
291.374461
70
0
0
VERTEX
8
Layer 1
10
1.496824
20
297.000009
70
0
0
VERTEX
8
Layer 1
10
0.000004
20
297.000009
70
0
0
SEQEND
8
Layer 1
0
POLYLINE
8
Layer 1
62
7
70
0
10
0.000000
20
0.000000
66
1
0
VERTEX
8
Layer 1
10
10.041152
20
295.166405
70
0
0
VERTEX
8
Layer 1
10
9.618028
20
295.115341
70
0
0
VERTEX
8
Layer 1
10
9.331722
20
294.945000
70
0
0
VERTEX
8
Layer 1
10
9.169372
20
294.629655
70
0
0
VERTEX
8
Layer 1
10
9.118113
20
294.143578
70
0
0
VERTEX
8
Layer 1
10
9.118113
20
288.580397
70
0
0
VERTEX
8
Layer 1
10
10.440304
20
288.580397
70
0
0
VERTEX
8
Layer 1
10
10.440304
20
293.707005
70
0
0
VERTEX
8
Layer 1
10
10.602460
20
293.894108
70
0
0
VERTEX
8
Layer 1
10
12.760376
20
293.894108
70
0
0
VERTEX
8
Layer 1
10
13.654375
20
293.788278
70
0
0
VERTEX
8
Layer 1
10
14.271228
20
293.477805
70
0
0
VERTEX
8
Layer 1
10
14.628477
20
292.973213
70
0
0
VERTEX
8
Layer 1
10
14.743662
20
292.285026
70
0
0
VERTEX
8
Layer 1
10
14.743662
20
288.580397
70
0
0
VERTEX
8
Layer 1
10
16.078327
20
288.580397
70
0
0
VERTEX
8
Layer 1
10
16.078327
20
292.285026
70
0
0
VERTEX
8
Layer 1
10
15.873878
20
293.503531
70
0
0
VERTEX
8
Layer 1
10
15.256635
20
294.408640
70
0
0
VERTEX
8
Layer 1
10
14.220750
20
294.972286
70
0
0
VERTEX
8
Layer 1
10
12.760376
20
295.166405
70
0
0
VERTEX
8
Layer 1
10
10.041152
20
295.166405
70
0
0
SEQEND
8
Layer 1
0
POLYLINE
8
Layer 1
62
7
70
0
10
0.000000
20
0.000000
66
1
0
VERTEX
8
Layer 1
10
19.770468
20
295.166405
70
0
0
VERTEX
8
Layer 1
10
18.787985
20
295.032899
70
0
0
VERTEX
8
Layer 1
10
18.122407
20
294.650314
70
0
0
VERTEX
8
Layer 1
10
17.744499
20
294.045544
70
0
0
VERTEX
8
Layer 1
10
17.625026
20
293.245486
70
0
0
VERTEX
8
Layer 1
10
17.723645
20
292.519099
70
0
0
VERTEX
8
Layer 1
10
18.077190
20
291.906144
70
0
0
VERTEX
8
Layer 1
10
18.772198
20
291.482629
70
0
0
VERTEX
8
Layer 1
10
19.895203
20
291.324567
70
0
0
VERTEX
8
Layer 1
10
21.454391
20
291.324567
70
0
0
VERTEX
8
Layer 1
10
22.170058
20
291.153056
70
0
0
VERTEX
8
Layer 1
10
22.389903
20
290.588630
70
0
0
VERTEX
8
Layer 1
10
22.188768
20
290.035119
70
0
0
VERTEX
8
Layer 1
10
21.529232
20
289.865167
70
0
0
VERTEX
8
Layer 1
10
17.699867
20
289.865167
70
0
0
VERTEX
8
Layer 1
10
17.699867
20
288.580397
70
0
0
VERTEX
8
Layer 1
10
21.529232
20
288.580397
70
0
0
VERTEX
8
Layer 1
10
22.518926
20
288.727350
70
0
0
VERTEX
8
Layer 1
10
23.188207
20
289.138586
70
0
0
VERTEX
8
Layer 1
10
23.567479
20
289.769667
70
0
0
VERTEX
8
Layer 1
10
23.687147
20
290.576157
70
0
0
VERTEX
8
Layer 1
10
23.586579
20
291.298061
70
0
0
VERTEX
8
Layer 1
10
23.228746
20
291.888993
70
0
0
VERTEX
8
Layer 1
10
22.529451
20
292.288145
70
0
0
VERTEX
8
Layer 1
10
21.404497
20
292.434708
70
0
0
VERTEX
8
Layer 1
10
19.857783
20
292.434708
70
0
0
VERTEX
8
Layer 1
10
19.114050
20
292.617133
70
0
0
VERTEX
8
Layer 1
10
18.922270
20
293.145698
70
0
0
VERTEX
8
Layer 1
10
19.123405
20
293.707005
70
0
0
VERTEX
8
Layer 1
10
19.782942
20
293.894108
70
0
0
VERTEX
8
Layer 1
10
23.425204
20
293.894108
70
0
0
VERTEX
8
Layer 1
10
23.425204
20
295.166405
70
0
0
VERTEX
8
Layer 1
10
19.770468
20
295.166405
70
0
0
SEQEND
8
Layer 1
0
POLYLINE
8
Layer 1
62
7
70
1
10
0.000000
20
0.000000
66
1
0
VERTEX
8
Layer 1
10
25.208895
20
295.166405
70
0
0
VERTEX
8
Layer 1
10
25.208895
20
291.174885
70
0
0
VERTEX
8
Layer 1
10
25.390345
20
290.127500
70
0
0
VERTEX
8
Layer 1
10
25.930799
20
289.306978
70
0
0
VERTEX
8
Layer 1
10
26.824408
20
288.771787
70
0
0
VERTEX
8
Layer 1
10
28.065327
20
288.580397
70
0
0
VERTEX
8
Layer 1
10
29.287730
20
288.580397
70
0
0
VERTEX
8
Layer 1
10
30.528649
20
288.771787
70
0
0
VERTEX
8
Layer 1
10
31.422258
20
289.306978
70
0
0
VERTEX
8
Layer 1
10
31.962712
20
290.127500
70
0
0
VERTEX
8
Layer 1
10
32.144162
20
291.174885
70
0
0
VERTEX
8
Layer 1
10
32.144162
20
295.166405
70
0
0
VERTEX
8
Layer 1
10
30.846918
20
295.166405
70
0
0
VERTEX
8
Layer 1
10
30.846918
20
291.224779
70
0
0
VERTEX
8
Layer 1
10
30.742842
20
290.686079
70
0
0
VERTEX
8
Layer 1
10
30.435292
20
290.254964
70
0
0
VERTEX
8
Layer 1
10
29.931285
20
289.968853
70
0
0
VERTEX
8
Layer 1
10
29.237836
20
289.865167
70
0
0
VERTEX
8
Layer 1
10
28.165115
20
289.865167
70
0
0
VERTEX
8
Layer 1
10
27.469717
20
289.968853
70
0
0
VERTEX
8
Layer 1
10
26.961422
20
290.254964
70
0
0
VERTEX
8
Layer 1
10
26.649585
20
290.686079
70
0
0
VERTEX
8
Layer 1
10
26.543560
20
291.224779
70
0
0
VERTEX
8
Layer 1
10
26.543560
20
295.166405
70
0
0
VERTEX
8
Layer 1
10
25.208895
20
295.166405
70
0
0
SEQEND
8
Layer 1
0
POLYLINE
8
Layer 1
62
7
70
0
10
0.000000
20
0.000000
66
1
0
VERTEX
8
Layer 1
10
34.925748
20
295.166405
70
0
0
VERTEX
8
Layer 1
10
34.502624
20
295.115341
70
0
0
VERTEX
8
Layer 1
10
34.216318
20
294.945000
70
0
0
VERTEX
8
Layer 1
10
34.053967
20
294.629655
70
0
0
VERTEX
8
Layer 1
10
34.002709
20
294.143578
70
0
0
VERTEX
8
Layer 1
10
34.002709
20
288.580397
70
0
0
VERTEX
8
Layer 1
10
35.324900
20
288.580397
70
0
0
VERTEX
8
Layer 1
10
35.324900
20
293.707005
70
0
0
VERTEX
8
Layer 1
10
35.487056
20
293.894108
70
0
0
VERTEX
8
Layer 1
10
37.644971
20
293.894108
70
0
0
VERTEX
8
Layer 1
10
38.538970
20
293.788278
70
0
0
VERTEX
8
Layer 1
10
39.155824
20
293.477805
70
0
0
VERTEX
8
Layer 1
10
39.513073
20
292.973213
70
0
0
VERTEX
8
Layer 1
10
39.628258
20
292.285026
70
0
0
VERTEX
8
Layer 1
10
39.628258
20
288.580397
70
0
0
VERTEX
8
Layer 1
10
40.962922
20
288.580397
70
0
0
VERTEX
8
Layer 1
10
40.962922
20
292.285026
70
0
0
VERTEX
8
Layer 1
10
40.758474
20
293.503531
70
0
0
VERTEX
8
Layer 1
10
40.141230
20
294.408640
70
0
0
VERTEX
8
Layer 1
10
39.105345
20
294.972286
70
0
0
VERTEX
8
Layer 1
10
37.644971
20
295.166405
70
0
0
VERTEX
8
Layer 1
10
34.925748
20
295.166405
70
0
0
SEQEND
8
Layer 1
0
POLYLINE
8
Layer 1
62
7
70
0
10
0.000000
20
0.000000
66
1
0
VERTEX
8
Layer 1
10
45.366056
20
295.166405
70
0
0
VERTEX
8
Layer 1
10
44.177760
20
294.973455
70
0
0
VERTEX
8
Layer 1
10
43.278303
20
294.389929
70
0
0
VERTEX
8
Layer 1
10
42.708615
20
293.408811
70
0
0
VERTEX
8
Layer 1
10
42.509624
20
292.023083
70
0
0
VERTEX
8
Layer 1
10
42.708615
20
290.628195
70
0
0
VERTEX
8
Layer 1
10
43.278303
20
289.639085
70
0
0
VERTEX
8
Layer 1
10
44.177760
20
289.049907
70
0
0
VERTEX
8
Layer 1
10
45.366056
20
288.854814
70
0
0
VERTEX
8
Layer 1
10
48.272381
20
288.854814
70
0
0
VERTEX
8
Layer 1
10
48.272381
20
288.555450
70
0
0
VERTEX
8
Layer 1
10
48.206310
20
287.946977
70
0
0
VERTEX
8
Layer 1
10
47.987050
20
287.532623
70
0
0
VERTEX
8
Layer 1
10
47.583025
20
287.296016
70
0
0
VERTEX
8
Layer 1
10
46.962664
20
287.220785
70
0
0
VERTEX
8
Layer 1
10
43.195667
20
287.220785
70
0
0
VERTEX
8
Layer 1
10
43.195667
20
285.948488
70
0
0
VERTEX
8
Layer 1
10
47.112346
20
285.948488
70
0
0
VERTEX
8
Layer 1
10
48.280957
20
286.092713
70
0
0
VERTEX
8
Layer 1
10
49.051975
20
286.550335
70
0
0
VERTEX
8
Layer 1
10
49.476854
20
287.358773
70
0
0
VERTEX
8
Layer 1
10
49.607046
20
288.555450
70
0
0
VERTEX
8
Layer 1
10
49.607046
20
292.347394
70
0
0
VERTEX
8
Layer 1
10
49.449958
20
293.587727
70
0
0
VERTEX
8
Layer 1
10
48.986489
20
294.467889
70
0
0
VERTEX
8
Layer 1
10
48.228334
20
294.992555
70
0
0
VERTEX
8
Layer 1
10
47.187187
20
295.166405
70
0
0
VERTEX
8
Layer 1
10
45.366056
20
295.166405
70
0
0
SEQEND
8
Layer 1
0
POLYLINE
8
Layer 1
62
7
70
0
10
0.000000
20
0.000000
66
1
0
VERTEX
8
Layer 1
10
43.844289
20
291.973189
70
0
0
VERTEX
8
Layer 1
10
43.941933
20
292.841656
70
0
0
VERTEX
8
Layer 1
10
44.241882
20
293.438825
70
0
0
VERTEX
8
Layer 1
10
44.754659
20
293.783405
70
0
0
VERTEX
8
Layer 1
10
45.490791
20
293.894108
70
0
0
VERTEX
8
Layer 1
10
46.800508
20
293.894108
70
0
0
VERTEX
8
Layer 1
10
47.477780
20
293.805234
70
0
0
VERTEX
8
Layer 1
10
47.934038
20
293.529258
70
0
0
VERTEX
8
Layer 1
10
48.191498
20
293.052147
70
0
0
VERTEX
8
Layer 1
10
48.272381
20
292.359867
70
0
0
VERTEX
8
Layer 1
10
48.272381
20
290.052270
70
0
0
VERTEX
8
Layer 1
10
45.490791
20
290.052270
70
0
0
VERTEX
8
Layer 1
10
44.754659
20
290.162972
70
0
0
VERTEX
8
Layer 1
10
44.241882
20
290.507552
70
0
0
VERTEX
8
Layer 1
10
43.941933
20
291.104721
70
0
0
VERTEX
8
Layer 1
10
43.844289
20
291.973189
70
0
0
VERTEX
8
Layer 1
10
43.844289
20
291.973189
70
0
0
SEQEND
8
Layer 1
0
POLYLINE
8
Layer 1
62
7
70
1
10
0.000000
20
0.000000
66
1
0
VERTEX
8
Layer 1
10
0.062372
20
281.408134
70
0
0
VERTEX
8
Layer 1
10
0.062372
20
272.988521
70
0
0
VERTEX
8
Layer 1
10
1.534245
20
272.988521
70
0
0
VERTEX
8
Layer 1
10
1.534245
20
276.506048
70
0
0
VERTEX
8
Layer 1
10
5.837602
20
276.506048
70
0
0
VERTEX
8
Layer 1
10
5.837602
20
272.988521
70
0
0
VERTEX
8
Layer 1
10
7.321949
20
272.988521
70
0
0
VERTEX
8
Layer 1
10
7.321949
20
281.408134
70
0
0
VERTEX
8
Layer 1
10
5.837602
20
281.408134
70
0
0
VERTEX
8
Layer 1
10
5.837602
20
277.977921
70
0
0
VERTEX
8
Layer 1
10
1.534245
20
277.977921
70
0
0
VERTEX
8
Layer 1
10
1.534245
20
281.408134
70
0
0
VERTEX
8
Layer 1
10
0.062372
20
281.408134
70
0
0
SEQEND
8
Layer 1
0
POLYLINE
8
Layer 1
62
7
70
0
10
0.000000
20
0.000000
66
1
0
VERTEX
8
Layer 1
10
11.438191
20
279.574529
70
0
0
VERTEX
8
Layer 1
10
10.384960
20
279.410814
70
0
0
VERTEX
8
Layer 1
10
9.673191
20
278.957091
70
0
0
VERTEX
8
Layer 1
10
9.270141
20
278.269489
70
0
0
VERTEX
8
Layer 1
10
9.143067
20
277.404140
70
0
0
VERTEX
8
Layer 1
10
9.143067
20
275.158910
70
0
0
VERTEX
8
Layer 1
10
9.270141
20
274.293561
70
0
0
VERTEX
8
Layer 1
10
9.673191
20
273.605959
70
0
0
VERTEX
8
Layer 1
10
10.384960
20
273.152236
70
0
0
VERTEX
8
Layer 1
10
11.438191
20
272.988521
70
0
0
VERTEX
8
Layer 1
10
15.467131
20
272.988521
70
0
0
VERTEX
8
Layer 1
10
15.467131
20
274.273292
70
0
0
VERTEX
8
Layer 1
10
11.438191
20
274.273292
70
0
0
VERTEX
8
Layer 1
10
10.975112
20
274.341896
70
0
0
VERTEX
8
Layer 1
10
10.661715
20
274.532117
70
0
0
VERTEX
8
Layer 1
10
10.427837
20
275.183857
70
0
0
VERTEX
8
Layer 1
10
10.427837
20
275.657850
70
0
0
VERTEX
8
Layer 1
10
13.558686
20
275.657850
70
0
0
VERTEX
8
Layer 1
10
14.591648
20
275.783949
70
0
0
VERTEX
8
Layer 1
10
15.283147
20
276.152113
70
0
0
VERTEX
8
Layer 1
10
15.670605
20
276.747138
70
0
0
VERTEX
8
Layer 1
10
15.791442
20
277.553822
70
0
0
VERTEX
8
Layer 1
10
15.663784
20
278.406308
70
0
0
VERTEX
8
Layer 1
10
15.265996
20
279.041287
70
0
0
VERTEX
8
Layer 1
10
14.575861
20
279.437710
70
0
0
VERTEX
8
Layer 1
10
13.571159
20
279.574529
70
0
0
VERTEX
8
Layer 1
10
11.438191
20
279.574529
70
0
0
SEQEND
8
Layer 1
0
POLYLINE
8
Layer 1
62
7
70
0
10
0.000000
20
0.000000
66
1
0
VERTEX
8
Layer 1
10
10.427837
20
277.391667
70
0
0
VERTEX
8
Layer 1
10
10.661715
20
278.038729
70
0
0
VERTEX
8
Layer 1
10
10.975112
20
278.231874
70
0
0
VERTEX
8
Layer 1
10
11.438191
20
278.302232
70
0
0
VERTEX
8
Layer 1
10
13.558686
20
278.302232
70
0
0
VERTEX
8
Layer 1
10
14.269675
20
278.077709
70
0
0
VERTEX
8
Layer 1
10
14.494198
20
277.478981
70
0
0
VERTEX
8
Layer 1
10
14.274353
20
276.903641
70
0
0
VERTEX
8
Layer 1
10
13.521265
20
276.693151
70
0
0
VERTEX
8
Layer 1
10
10.427837
20
276.693151
70
0
0
VERTEX
8
Layer 1
10
10.427837
20
277.391667
70
0
0
SEQEND
8
Layer 1
0
POLYLINE
8
Layer 1
62
7
70
0
10
0.000000
20
0.000000
66
1
0
VERTEX
8
Layer 1
10
19.184217
20
279.574529
70
0
0
VERTEX
8
Layer 1
10
18.358238
20
279.460319
70
0
0
VERTEX
8
Layer 1
10
17.805895
20
279.109891
70
0
0
VERTEX
8
Layer 1
10
17.496787
20
278.511553
70
0
0
VERTEX
8
Layer 1
10
17.400507
20
277.653610
70
0
0
VERTEX
8
Layer 1
10
17.400507
20
272.988521
70
0
0
VERTEX
8
Layer 1
10
18.722698
20
272.988521
70
0
0
VERTEX
8
Layer 1
10
18.722698
20
277.454034
70
0
0
VERTEX
8
Layer 1
10
18.926951
20
278.093301
70
0
0
VERTEX
8
Layer 1
10
19.570896
20
278.302232
70
0
0
VERTEX
8
Layer 1
10
21.890967
20
278.302232
70
0
0
VERTEX
8
Layer 1
10
21.890967
20
279.574529
70
0
0
VERTEX
8
Layer 1
10
19.184217
20
279.574529
70
0
0
SEQEND
8
Layer 1
0
POLYLINE
8
Layer 1
62
7
70
0
10
0.000000
20
0.000000
66
1
0
VERTEX
8
Layer 1
10
25.732795
20
279.574529
70
0
0
VERTEX
8
Layer 1
10
24.544499
20
279.372224
70
0
0
VERTEX
8
Layer 1
10
23.645042
20
278.760633
70
0
0
VERTEX
8
Layer 1
10
23.075354
20
277.732739
70
0
0
VERTEX
8
Layer 1
10
22.876363
20
276.281525
70
0
0
VERTEX
8
Layer 1
10
23.075354
20
274.830311
70
0
0
VERTEX
8
Layer 1
10
23.645042
20
273.802417
70
0
0
VERTEX
8
Layer 1
10
24.544499
20
273.190826
70
0
0
VERTEX
8
Layer 1
10
25.732795
20
272.988521
70
0
0
VERTEX
8
Layer 1
10
27.117353
20
272.988521
70
0
0
VERTEX
8
Layer 1
10
28.300387
20
273.190826
70
0
0
VERTEX
8
Layer 1
10
29.200428
20
273.802417
70
0
0
VERTEX
8
Layer 1
10
29.773040
20
274.830311
70
0
0
VERTEX
8
Layer 1
10
29.973785
20
276.281525
70
0
0
VERTEX
8
Layer 1
10
29.773040
20
277.732739
70
0
0
VERTEX
8
Layer 1
10
29.200428
20
278.760633
70
0
0
VERTEX
8
Layer 1
10
28.300387
20
279.372224
70
0
0
VERTEX
8
Layer 1
10
27.117353
20
279.574529
70
0
0
VERTEX
8
Layer 1
10
25.732795
20
279.574529
70
0
0
SEQEND
8
Layer 1
0
POLYLINE
8
Layer 1
62
7
70
0
10
0.000000
20
0.000000
66
1
0
VERTEX
8
Layer 1
10
26.992618
20
278.302232
70
0
0
VERTEX
8
Layer 1
10
27.728750
20
278.186462
70
0
0
VERTEX
8
Layer 1
10
28.241528
20
277.825121
70
0
0
VERTEX
8
Layer 1
10
28.541477
20
277.197158
70
0
0
VERTEX
8
Layer 1
10
28.639121
20
276.281525
70
0
0
VERTEX
8
Layer 1
10
28.541477
20
275.367841
70
0
0
VERTEX
8
Layer 1
10
28.241528
20
274.744166
70
0
0
VERTEX
8
Layer 1
10
27.728750
20
274.387113
70
0
0
VERTEX
8
Layer 1
10
26.992618
20
274.273292
70
0
0
VERTEX
8
Layer 1
10
25.857530
20
274.273292
70
0
0
VERTEX
8
Layer 1
10
25.116136
20
274.387113
70
0
0
VERTEX
8
Layer 1
10
24.603943
20
274.744166
70
0
0
VERTEX
8
Layer 1
10
24.306918
20
275.367841
70
0
0
VERTEX
8
Layer 1
10
24.211028
20
276.281525
70
0
0
VERTEX
8
Layer 1
10
24.306918
20
277.197158
70
0
0
VERTEX
8
Layer 1
10
24.603943
20
277.825121
70
0
0
VERTEX
8
Layer 1
10
25.116136
20
278.186462
70
0
0
VERTEX
8
Layer 1
10
25.857530
20
278.302232
70
0
0
VERTEX
8
Layer 1
10
26.992618
20
278.302232
70
0
0
SEQEND
8
Layer 1
 0 
ENDSEC
 0 
EOF