<?xml version="1.0" encoding="UTF-8" standalone="no"?>
<!-- Uploaded to: SVG Repo, www.svgrepo.com, Generator: SVG Repo Mixer Tools -->

<svg
   fill="#000000"
   version="1.1"
   id="Capa_1"
   width="800px"
   height="800px"
   viewBox="0 0 96.322 96.322"
   xml:space="preserve"
   sodipodi:docname="acrylic_outset.svg"
   inkscape:version="1.4.3 (fcd0343856, 2026-01-01)"
   xmlns:inkscape="http://www.inkscape.org/namespaces/inkscape"
   xmlns:sodipodi="http://sodipodi.sourceforge.net/DTD/sodipodi-0.dtd"
   xmlns:xlink="http://www.w3.org/1999/xlink"
   xmlns="http://www.w3.org/2000/svg"
   xmlns:svg="http://www.w3.org/2000/svg"><sodipodi:namedview
   id="namedview7"
   pagecolor="#ffffff"
   bordercolor="#000000"
   borderopacity="0.25"
   inkscape:showpageshadow="2"
   inkscape:pageopacity="0.0"
   inkscape:pagecheckerboard="0"
   inkscape:deskcolor="#d1d1d1"
   inkscape:zoom="2"
   inkscape:cx="97"
   inkscape:cy="133.75"
   inkscape:window-width="1920"
   inkscape:window-height="995"
   inkscape:window-x="0"
   inkscape:window-y="0"
   inkscape:window-maximized="1"
   inkscape:current-layer="Capa_1"
   showgrid="false" /><defs
   id="defs7" />
<g
   id="g7">
	<g
   id="g6">
		
		
		
		
		
		
	<path
   id="path9"
   style="fill:none;fill-opacity:1;stroke:#000000;stroke-width:0.532371;stroke-dasharray:none;stroke-opacity:1"
   d="M 13.164096,0.36466314 C 7.5832339,3.8800629 3.7880099,9.9065964 2.6101209,16.35417 c -0.644952,3.40548 -0.584217,6.938503 0.129525,10.32794 -0.268371,0.454618 -0.747896,0.730878 -1.041568,1.170273 -0.501324,0.556476 -0.95429399,1.153683 -1.40414899,1.751693 1.30693999,4.311347 2.61560999,8.622172 3.92229699,12.933597 1.446986,-1.550717 3.307032,-2.821087 5.37808,-3.29943 0.130867,0.461431 -0.191756,1.108049 0.309874,1.438106 0.3616041,0.196517 0.7938811,0.0096 1.1850461,0.05999 1.886667,-0.02376 3.773513,0.003 5.660257,-0.008 0.16905,-0.431399 -0.04965,-0.897054 0.08735,-1.329962 0.507023,0.04364 0.931409,0.326331 1.419925,0.468929 1.509679,0.637227 2.849123,1.638327 3.956075,2.840899 1.307899,-4.312203 2.615339,-8.624545 3.923337,-12.936717 -0.716169,-1.030427 -1.569639,-1.953792 -2.42076,-2.872053 0.03701,-0.684453 0.282188,-1.338673 0.325863,-2.024709 C 25.159523,17.314367 22.768194,9.2228239 17.411768,3.7156713 16.165313,2.4181752 14.74683,1.2913739 13.234805,0.31787011 l -0.0444,0.0293816 z" /><path
   id="path11"
   style="display:none;fill:none;stroke:#000000;stroke-width:0.532371;stroke-dasharray:none;stroke-opacity:1"
   d="m 13.032035,10.899337 c -2.246859,0.05456 -4.1575601,2.28274 -3.8411891,4.50149 0.21418,1.978728 2.0281271,3.694629 4.0501981,3.622822 1.906378,0.0011 3.742146,-1.469832 4.002604,-3.386366 0.282585,-1.712898 -0.607515,-3.585487 -2.210329,-4.316279 -0.61686,-0.308724 -1.312299,-0.453562 -2.001284,-0.421667 z" /><path
   id="path1"
   style="display:inline;fill:none;fill-opacity:1;stroke:#000000;stroke-width:0.0455065;stroke-dasharray:none;stroke-opacity:1"
   d="m 13.22264,-1.6875163 -0.08325,0.055498 -0.04562,0.030571 C 4.6471337,3.3381839 -0.27148343,13.402656 0.55897801,23.094234 c 0.0564177,1.0391 0.20309211,2.070187 0.37860943,3.095191 -0.001162,0.0013 -0.002366,0.0025 -0.003527,0.0038 l 0.004703,4.7e-4 0.70101536,3.594673 23.3061142,-0.36497 0.568149,-3.038282 0.0078,-0.0014 c -0.0021,-0.0023 -0.004,-0.0045 -0.0061,-0.0068 C 27.303479,17.125191 24.061765,6.8795873 16.743943,0.80989494 15.644798,-0.12229102 14.442604,-0.92339664 13.22264,-1.6875163 Z" /><path
   style="fill:none;fill-opacity:1;stroke:#000000;stroke-width:0.04550646;stroke-dasharray:none;stroke-opacity:1"
   d="M 13.220759,3.8808642 V 27.79534 h 7.39229 c -0.0013,-0.0014 -0.0025,-0.0028 -0.0038,-0.0042 1.483392,-6.154922 0.917605,-13.0347 -2.513873,-18.4766107 C 16.792702,7.2476318 15.185265,5.3475402 13.220759,3.8808642 Z"
   id="path2" /><text
   x="0"
   y="0"
   id="text2"
   style="display:none"><textPath
     style="font-style:normal;font-weight:normal;font-size:4px;text-align:center;text-anchor:start;fill:#000000;fill-opacity:1;stroke:none"
     xlink:href="#path2"
     startOffset="50%"
     dy="-0.72241497"
     id="textPath2">480.03 px</textPath></text><text
   x="0"
   y="0"
   id="text3"
   style="display:none"><textPath
     style="font-style:normal;font-weight:normal;font-size:4px;text-align:center;text-anchor:start;fill:#000000;fill-opacity:1;stroke:none"
     xlink:href="#path2"
     startOffset="50%"
     dy="-0.72241497"
     id="textPath3">127.01 mm</textPath></text><text
   x="0"
   y="0"
   id="text4"
   style="display:none"><textPath
     style="font-style:normal;font-weight:normal;font-size:2px;text-align:center;text-anchor:start;fill:#000000;fill-opacity:1;stroke:none"
     xlink:href="#path2"
     startOffset="50%"
     dy="-0.72241497"
     id="textPath4">127.01 mm</textPath></text><text
   x="17.300163"
   y="15.838102"
   id="text5"
   style="display:none"><tspan
     sodipodi:role="line"
     style="font-style:normal;font-weight:normal;font-size:0.240805px;text-align:center;text-anchor:middle;fill:#000000;fill-opacity:1;stroke:none"
     dy="0.277585"
     id="tspan4"
     x="17.300163"
     y="15.838102">127.01 mm</tspan></text><text
   x="17.300163"
   y="15.838102"
   id="text6"
   style="display:none"><tspan
     sodipodi:role="line"
     style="font-style:normal;font-weight:normal;font-size:1.44483px;text-align:center;text-anchor:middle;fill:#000000;fill-opacity:1;stroke:none"
     dy="5.277585"
     id="tspan5"
     x="17.300163"
     y="15.838102">127.01 mm</tspan></text></g>
</g>
<circle
   style="fill:none;stroke:#cd215d;stroke-width:0.0455065;stroke-dasharray:none;stroke-opacity:1"
   id="path6"
   cx="14.4784"
   cy="4.9176898"
   r="0.094064452" /><circle
   style="fill:none;stroke:#cd215d;stroke-width:0.0455065;stroke-dasharray:none;stroke-opacity:1"
   id="circle6"
   cx="16.715199"
   cy="7.3585787"
   r="0.094064452" /><circle
   style="fill:none;stroke:#cd215d;stroke-width:0.0455065;stroke-dasharray:none;stroke-opacity:1"
   id="circle7"
   cx="18.577579"
   cy="10.10426"
   r="0.094064452" /><circle
   style="fill:none;stroke:#cd215d;stroke-width:0.0455065;stroke-dasharray:none;stroke-opacity:1"
   id="circle8"
   cx="19.955742"
   cy="13.105354"
   r="0.094064452" /><circle
   style="fill:none;stroke:#cd215d;stroke-width:0.0455065;stroke-dasharray:none;stroke-opacity:1"
   id="circle9"
   cx="20.873865"
   cy="16.315809"
   r="0.094064452" /><circle
   style="fill:none;stroke:#cd215d;stroke-width:0.0455065;stroke-dasharray:none;stroke-opacity:1"
   id="circle10"
   cx="21.325375"
   cy="19.604301"
   r="0.094064452" /><circle
   style="fill:none;stroke:#cd215d;stroke-width:0.0455065;stroke-dasharray:none;stroke-opacity:1"
   id="circle11"
   cx="21.332901"
   cy="22.922895"
   r="0.094064452" /><circle
   style="fill:none;stroke:#cd215d;stroke-width:0.0455065;stroke-dasharray:none;stroke-opacity:1"
   id="circle12"
   cx="20.939011"
   cy="26.18211"
   r="0.094064452" /></svg>
