999
"DXF R12 Output" (www.mydxf.blogspot.com)
 0 
SECTION
 2 
HEADER
 9 
$ACADVER
 1 
AC1009
 9 
$EXTMIN
 10 
 0 
 20 
 0 
 9 
$EXTMAX
 10 
 8.5 
 20 
 11 
 0 
ENDSEC
 0 
SECTION
 2 
ENTITIES
0
POLYLINE
8
Layer 1
62
7
70
0
10
0.000000
20
0.000000
66
1
0
VERTEX
8
Layer 1
10
105.616863
20
209.220576
70
0
0
VERTEX
8
Layer 1
10
101.384996
20
206.380624
70
0
0
VERTEX
8
Layer 1
10
97.330898
20
203.310385
70
0
0
VERTEX
8
Layer 1
10
93.459597
20
200.022497
70
0
0
VERTEX
8
Layer 1
10
89.776122
20
196.529597
70
0
0
VERTEX
8
Layer 1
10
86.285501
20
192.844322
70
0
0
VERTEX
8
Layer 1
10
82.992763
20
188.979308
70
0
0
VERTEX
8
Layer 1
10
79.902936
20
184.947194
70
0
0
VERTEX
8
Layer 1
10
77.021050
20
180.760615
70
0
0
VERTEX
8
Layer 1
10
74.352132
20
176.432209
70
0
0
VERTEX
8
Layer 1
10
71.901211
20
171.974613
70
0
0
VERTEX
8
Layer 1
10
69.673316
20
167.400464
70
0
0
VERTEX
8
Layer 1
10
67.673475
20
162.722399
70
0
0
VERTEX
8
Layer 1
10
65.906717
20
157.953055
70
0
0
VERTEX
8
Layer 1
10
64.378070
20
153.105069
70
0
0
VERTEX
8
Layer 1
10
63.092564
20
148.191078
70
0
0
VERTEX
8
Layer 1
10
62.055226
20
143.223719
70
0
0
VERTEX
8
Layer 1
10
61.193067
20
137.930171
70
0
0
VERTEX
8
Layer 1
10
60.601429
20
132.600384
70
0
0
VERTEX
8
Layer 1
10
60.277763
20
127.247472
70
0
0
VERTEX
8
Layer 1
10
60.219522
20
121.884549
70
0
0
VERTEX
8
Layer 1
10
60.424157
20
116.524730
70
0
0
VERTEX
8
Layer 1
10
60.889120
20
111.181129
70
0
0
VERTEX
8
Layer 1
10
61.611863
20
105.866861
70
0
0
VERTEX
8
Layer 1
10
62.589838
20
100.595039
70
0
0
VERTEX
8
Layer 1
10
61.621250
20
99.303718
70
0
0
VERTEX
8
Layer 1
10
60.479459
20
98.156320
70
0
0
VERTEX
8
Layer 1
10
59.318087
20
97.020704
70
0
0
VERTEX
8
Layer 1
10
58.290758
20
95.764728
70
0
0
VERTEX
8
Layer 1
10
55.313273
20
92.213948
70
0
0
VERTEX
8
Layer 1
10
52.495118
20
88.534597
70
0
0
VERTEX
8
Layer 1
10
68.684438
20
35.151040
70
0
0
VERTEX
8
Layer 1
10
71.002396
20
37.492900
70
0
0
VERTEX
8
Layer 1
10
73.470416
20
39.701528
70
0
0
VERTEX
8
Layer 1
10
76.078724
20
41.752176
70
0
0
VERTEX
8
Layer 1
10
78.817547
20
43.620094
70
0
0
VERTEX
8
Layer 1
10
81.677111
20
45.280532
70
0
0
VERTEX
8
Layer 1
10
84.647644
20
46.708741
70
0
0
VERTEX
8
Layer 1
10
87.719372
20
47.879970
70
0
0
VERTEX
8
Layer 1
10
90.882521
20
48.769470
70
0
0
VERTEX
8
Layer 1
10
91.019082
20
47.230090
70
0
0
VERTEX
8
Layer 1
10
90.948151
20
45.598229
70
0
0
VERTEX
8
Layer 1
10
90.989385
20
44.808290
70
0
0
VERTEX
8
Layer 1
10
91.164157
20
44.068039
70
0
0
VERTEX
8
Layer 1
10
91.534271
20
43.401743
70
0
0
VERTEX
8
Layer 1
10
92.161529
20
42.833672
70
0
0
VERTEX
8
Layer 1
10
93.328406
20
42.482010
70
0
0
VERTEX
8
Layer 1
10
94.561417
20
42.483617
70
0
0
VERTEX
8
Layer 1
10
95.817306
20
42.598348
70
0
0
VERTEX
8
Layer 1
10
97.052818
20
42.586061
70
0
0
VERTEX
8
Layer 1
10
120.415585
20
42.619067
70
0
0
VERTEX
8
Layer 1
10
120.686764
20
43.976710
70
0
0
VERTEX
8
Layer 1
10
120.645457
20
45.361448
70
0
0
VERTEX
8
Layer 1
10
120.579346
20
46.747353
70
0
0
VERTEX
8
Layer 1
10
120.776112
20
48.108498
70
0
0
VERTEX
8
Layer 1
10
122.291180
20
47.812861
70
0
0
VERTEX
8
Layer 1
10
123.735134
20
47.293921
70
0
0
VERTEX
8
Layer 1
10
126.636868
20
46.172991
70
0
0
VERTEX
8
Layer 1
10
128.940135
20
45.117588
70
0
0
VERTEX
8
Layer 1
10
131.174518
20
43.929239
70
0
0
VERTEX
8
Layer 1
10
135.424585
20
41.185120
70
0
0
VERTEX
8
Layer 1
10
139.362979
20
38.003477
70
0
0
VERTEX
8
Layer 1
10
142.965610
20
34.447151
70
0
0
VERTEX
8
Layer 1
10
159.159221
20
87.843583
70
0
0
VERTEX
8
Layer 1
10
156.844974
20
90.957126
70
0
0
VERTEX
8
Layer 1
10
154.372247
20
93.944409
70
0
0
VERTEX
8
Layer 1
10
149.167509
20
99.698011
70
0
0
VERTEX
8
Layer 1
10
149.416756
20
101.797430
70
0
0
VERTEX
8
Layer 1
10
149.829690
20
103.874064
70
0
0
VERTEX
8
Layer 1
10
150.247785
20
105.951925
70
0
0
VERTEX
8
Layer 1
10
150.512513
20
108.055021
70
0
0
VERTEX
8
Layer 1
10
151.208731
20
113.928601
70
0
0
VERTEX
8
Layer 1
10
151.568729
20
119.834730
70
0
0
VERTEX
8
Layer 1
10
151.595799
20
125.754569
70
0
0
VERTEX
8
Layer 1
10
151.293234
20
131.669283
70
0
0
VERTEX
8
Layer 1
10
150.664326
20
137.560033
70
0
0
VERTEX
8
Layer 1
10
149.712365
20
143.407982
70
0
0
VERTEX
8
Layer 1
10
148.440646
20
149.194294
70
0
0
VERTEX
8
Layer 1
10
146.852458
20
154.900131
70
0
0
VERTEX
8
Layer 1
10
144.951096
20
160.506655
70
0
0
VERTEX
8
Layer 1
10
142.739850
20
165.995030
70
0
0
VERTEX
8
Layer 1
10
140.222012
20
171.346418
70
0
0
VERTEX
8
Layer 1
10
137.400876
20
176.541982
70
0
0
VERTEX
8
Layer 1
10
134.279732
20
181.562885
70
0
0
VERTEX
8
Layer 1
10
130.861873
20
186.390290
70
0
0
VERTEX
8
Layer 1
10
127.150590
20
191.005359
70
0
0
VERTEX
8
Layer 1
10
123.149177
20
195.389255
70
0
0
VERTEX
8
Layer 1
10
119.162537
20
199.274846
70
0
0
VERTEX
8
Layer 1
10
114.939999
20
202.902965
70
0
0
VERTEX
8
Layer 1
10
110.511936
20
206.280344
70
0
0
VERTEX
8
Layer 1
10
105.908716
20
209.413714
70
0
0
VERTEX
8
Layer 1
10
105.725467
20
209.292442
70
0
0
VERTEX
8
Layer 1
10
105.616863
20
209.220576
70
0
0
SEQEND
8
Layer 1
0
POLYLINE
8
Layer 1
62
7
70
0
10
0.000000
20
0.000000
66
1
0
VERTEX
8
Layer 1
10
105.071782
20
165.738600
70
0
0
VERTEX
8
Layer 1
10
103.351085
20
165.593439
70
0
0
VERTEX
8
Layer 1
10
101.674340
20
165.251205
70
0
0
VERTEX
8
Layer 1
10
100.052980
20
164.725096
70
0
0
VERTEX
8
Layer 1
10
98.498437
20
164.028311
70
0
0
VERTEX
8
Layer 1
10
97.022145
20
163.174049
70
0
0
VERTEX
8
Layer 1
10
95.635536
20
162.175510
70
0
0
VERTEX
8
Layer 1
10
94.350043
20
161.045893
70
0
0
VERTEX
8
Layer 1
10
93.177099
20
159.798396
70
0
0
VERTEX
8
Layer 1
10
92.128137
20
158.446219
70
0
0
VERTEX
8
Layer 1
10
91.214588
20
157.002560
70
0
0
VERTEX
8
Layer 1
10
90.447887
20
155.480619
70
0
0
VERTEX
8
Layer 1
10
89.839466
20
153.893596
70
0
0
VERTEX
8
Layer 1
10
89.400757
20
152.254688
70
0
0
VERTEX
8
Layer 1
10
89.143194
20
150.577095
70
0
0
VERTEX
8
Layer 1
10
89.078209
20
148.874016
70
0
0
VERTEX
8
Layer 1
10
89.217235
20
147.158650
70
0
0
VERTEX
8
Layer 1
10
89.458967
20
145.641546
70
0
0
VERTEX
8
Layer 1
10
89.847045
20
144.159088
70
0
0
VERTEX
8
Layer 1
10
91.028579
20
141.334984
70
0
0
VERTEX
8
Layer 1
10
92.694525
20
138.760096
70
0
0
VERTEX
8
Layer 1
10
94.777568
20
136.508183
70
0
0
VERTEX
8
Layer 1
10
97.210397
20
134.653001
70
0
0
VERTEX
8
Layer 1
10
99.925699
20
133.268308
70
0
0
VERTEX
8
Layer 1
10
101.368242
20
132.775444
70
0
0
VERTEX
8
Layer 1
10
102.856160
20
132.427862
70
0
0
VERTEX
8
Layer 1
10
104.381041
20
132.234780
70
0
0
VERTEX
8
Layer 1
10
105.934469
20
132.205419
70
0
0
VERTEX
8
Layer 1
10
108.859400
20
132.480225
70
0
0
VERTEX
8
Layer 1
10
111.684228
20
133.275003
70
0
0
VERTEX
8
Layer 1
10
114.336170
20
134.540103
70
0
0
VERTEX
8
Layer 1
10
116.742446
20
136.225876
70
0
0
VERTEX
8
Layer 1
10
118.830273
20
138.282670
70
0
0
VERTEX
8
Layer 1
10
120.526872
20
140.660835
70
0
0
VERTEX
8
Layer 1
10
121.759461
20
143.310722
70
0
0
VERTEX
8
Layer 1
10
122.179007
20
144.722045
70
0
0
VERTEX
8
Layer 1
10
122.455258
20
146.182679
70
0
0
VERTEX
8
Layer 1
10
122.669468
20
148.854335
70
0
0
VERTEX
8
Layer 1
10
122.452151
20
151.524831
70
0
0
VERTEX
8
Layer 1
10
121.825556
20
154.131217
70
0
0
VERTEX
8
Layer 1
10
120.811931
20
156.610540
70
0
0
VERTEX
8
Layer 1
10
119.433525
20
158.899848
70
0
0
VERTEX
8
Layer 1
10
117.712586
20
160.936190
70
0
0
VERTEX
8
Layer 1
10
115.671363
20
162.656612
70
0
0
VERTEX
8
Layer 1
10
113.332103
20
163.998164
70
0
0
VERTEX
8
Layer 1
10
111.367202
20
164.826199
70
0
0
VERTEX
8
Layer 1
10
109.313579
20
165.395598
70
0
0
VERTEX
8
Layer 1
10
107.204137
20
165.701389
70
0
0
VERTEX
8
Layer 1
10
105.071782
20
165.738600
70
0
0
VERTEX
8
Layer 1
10
105.071782
20
165.738600
70
0
0
SEQEND
8
Layer 1
 0 
ENDSEC
 0 
EOF